<svg width="32" height="32" viewBox="0 0 32 32" fill="none" xmlns="http://www.w3.org/2000/svg">
<path fill-rule="evenodd" clip-rule="evenodd" d="M16.96 8H24.96L25.96 9V13.06H27L28 14.06V16L27 17H25.96V23L24.96 24H18.72L13.72 29.52L12 28.8V24H7L6 22.72V17H5L4 16V14.06L5 13.06H6V8.72L7.06 8H15.06V5.72C14.7465 5.55321 14.4831 5.30597 14.2968 5.00369C14.1106 4.70141 14.0081 4.35498 14 4C14 3.46957 14.2107 2.96086 14.5858 2.58579C14.9609 2.21071 15.4696 2 16 2C16.5304 2 17.0391 2.21071 17.4142 2.58579C17.7893 2.96086 18 3.46957 18 4C17.9836 4.34266 17.8793 4.67533 17.6971 4.96604C17.515 5.25675 17.2612 5.49573 16.96 5.66V8ZM24 16V10H8V21.72L13 22H14V26.38L17.6 22.3L18.3 22H24V16ZM19.76 17.02C19.0111 17.7707 18.0584 18.2853 17.02 18.5V18.48C16.1537 18.6457 15.2601 18.5976 14.4166 18.3396C13.5732 18.0817 12.8054 17.6219 12.18 17L10.78 18.42C11.46 19.1 12.27 19.636 13.16 20C14.06 20.376 15.024 20.572 16 20.58C17.9335 20.5682 19.7856 19.8001 21.16 18.44L19.76 17.02ZM12.98 13H10.98V15H12.98V13ZM18.98 13H20.98V15H18.98V13Z" fill="#3638DA"/>
</svg>
