<svg width="233" height="179" viewBox="0 0 233 179" fill="none" xmlns="http://www.w3.org/2000/svg">
<rect width="233" height="179" fill="white"/>
<path d="M126.752 57.2798C130.355 57.2799 133.275 60.0846 133.276 63.5444C133.276 67.0044 130.355 69.81 126.752 69.8101H186.4C190.003 69.8101 192.924 72.6147 192.924 76.0747C192.924 79.5348 190.003 82.3394 186.4 82.3394H206.904C210.507 82.3394 213.428 85.1449 213.428 88.605C213.428 92.065 210.507 94.8696 206.904 94.8696H189.196C185.593 94.8699 182.672 97.6753 182.672 101.135C182.672 104.595 185.593 107.4 189.196 107.4H194.788C198.391 107.4 201.312 110.205 201.312 113.665C201.312 117.125 198.391 119.93 194.788 119.93H146.324C145.845 119.93 145.376 119.88 144.926 119.786C144.476 119.88 144.007 119.93 143.528 119.93H58.7161C55.113 119.93 52.1917 117.125 52.1917 113.665C52.1918 110.205 55.113 107.4 58.7161 107.4H22.3684C18.7655 107.4 15.8443 104.595 15.844 101.135C15.844 97.6752 18.7653 94.8696 22.3684 94.8696H59.6477C63.2507 94.8696 66.172 92.065 66.1721 88.605C66.1721 85.1449 63.2508 82.3394 59.6477 82.3394H36.3479C32.7448 82.3393 29.8245 79.5347 29.8245 76.0747C29.8245 72.6147 32.7449 69.8101 36.3479 69.8101H73.6282C70.0251 69.8101 67.1038 67.0045 67.1038 63.5444C67.104 60.0845 70.0252 57.2798 73.6282 57.2798H126.752ZM210.632 107.4C214.235 107.4 217.155 110.205 217.156 113.665C217.156 117.125 214.235 119.93 210.632 119.93C207.029 119.93 204.108 117.125 204.108 113.665C204.108 110.205 207.029 107.4 210.632 107.4Z" fill="#F3F7FF"/>
<path d="M155.644 132.46H176.547M59.648 132.46H79.6432H59.648ZM47.6512 132.46H54.056H47.6512ZM180.927 132.46H183.604H180.927Z" stroke="#3638DA" stroke-opacity="0.9" stroke-width="2.5" stroke-linecap="round" stroke-linejoin="round"/>
<path d="M91.336 38.7557L101.681 49.9013M139.893 38.7557L129.548 49.9013L139.893 38.7557ZM115.568 34.9048V49.9013V34.9048Z" stroke="#3638DA" stroke-opacity="0.9" stroke-width="2.5" stroke-linecap="round" stroke-linejoin="round"/>
<path fill-rule="evenodd" clip-rule="evenodd" d="M86.4873 63.5449H144.837L139.611 71.0717L146.578 76.0896H84.7455L92.5835 71.0717L86.4873 63.5449Z" fill="#E8F0FE"/>
<path d="M143.881 64.0449L139.201 70.7861L138.92 71.1904L139.319 71.4775L145.03 75.5898H86.4536L92.853 71.4932L93.3237 71.1914L92.9721 70.7568L87.5356 64.0449H143.881Z" stroke="#3638DA" stroke-opacity="0.9"/>
<rect x="82.948" y="74.2852" width="66.172" height="67.125" rx="2" fill="white"/>
<rect x="83.448" y="74.7852" width="65.172" height="66.125" rx="1.5" stroke="#3638DA" stroke-opacity="0.9"/>
<path fill-rule="evenodd" clip-rule="evenodd" d="M87.2214 110.986V80.2326C87.2214 78.9656 88.3028 77.9385 89.6367 77.9385L146.467 135.292C146.467 136.981 145.059 138.351 143.321 138.351H90.3669C88.6297 138.351 87.2214 136.981 87.2214 135.292V123.863V120.763V110.986ZM87.2214 117.625V114.181Z" fill="#E8F0FE"/>
<path d="M145.957 135.486C145.854 136.798 144.726 137.851 143.321 137.851H90.3669C88.8927 137.851 87.7214 136.692 87.7214 135.292V80.2324C87.7215 79.3255 88.4543 78.541 89.4382 78.4473L145.957 135.486Z" stroke="#3638DA" stroke-opacity="0.9"/>
<path d="M83.88 111.394V77.7624C83.88 76.3767 85.0641 75.2534 86.5248 75.2534H147.033C147.985 75.2534 148.756 76.0023 148.756 76.926V137.977C148.756 139.824 147.214 141.322 145.311 141.322H87.3243C85.4221 141.322 83.88 139.824 83.88 137.977V125.478V122.087M83.88 118.656V114.889" stroke="#3638DA" stroke-opacity="0.9" stroke-width="2.5" stroke-linecap="round"/>
<path d="M85.6164 75.2534V65.2177C85.6164 64.2939 86.3162 63.5451 87.1795 63.5451L145.015 63.5451C145.879 63.5451 146.578 64.2939 146.578 65.2177V75.2534" stroke="#3638DA" stroke-opacity="0.9" stroke-width="2.5"/>
<path d="M101.728 92.8156C103.411 92.8156 104.776 91.5051 104.776 89.8885C104.776 88.2719 103.411 86.9614 101.728 86.9614C100.044 86.9614 98.6797 88.2719 98.6797 89.8885C98.6797 91.5051 100.044 92.8156 101.728 92.8156Z" fill="#E8F0FE" stroke="#3638DA" stroke-opacity="0.9" stroke-width="2.5" stroke-linecap="round"/>
<path d="M130.467 92.8156C132.15 92.8156 133.515 91.5051 133.515 89.8885C133.515 88.2719 132.15 86.9614 130.467 86.9614C128.784 86.9614 127.419 88.2719 127.419 89.8885C127.419 91.5051 128.784 92.8156 130.467 92.8156Z" fill="#E8F0FE" stroke="#3638DA" stroke-opacity="0.9" stroke-width="2.5" stroke-linecap="round"/>
<path d="M130.032 92.8158C130.032 100.206 123.793 106.197 116.097 106.197C108.402 106.197 102.163 100.206 102.163 92.8158" stroke="#3638DA" stroke-opacity="0.9" stroke-width="2.5" stroke-linecap="round"/>
<path d="M86.5404 64.3784L92.6715 70.1903C93.0378 70.5375 93.0417 71.1042 92.68 71.4559C92.6175 71.5168 92.5461 71.5688 92.4682 71.6102L85.6164 75.2531" stroke="#3638DA" stroke-opacity="0.9" stroke-width="2.5" stroke-linecap="round"/>
<path d="M145.802 64.4395L139.935 70.1858C139.575 70.5387 139.581 71.1054 139.948 71.4514C140.01 71.5092 140.079 71.5585 140.154 71.598L147.132 75.2535" stroke="#3638DA" stroke-opacity="0.9" stroke-width="2.5" stroke-linecap="round"/>
</svg>
