<svg width="194" height="195" viewBox="0 0 194 195" fill="none" xmlns="http://www.w3.org/2000/svg">
<path d="M97 194.322C150.572 194.322 194 169.247 194 138.316C194 107.385 150.572 82.3104 97 82.3104C43.4284 82.3104 0 107.385 0 138.316C0 169.247 43.4284 194.322 97 194.322Z" fill="#F5F5F5"/>
<path d="M135.175 119.917L167.848 138.777C168.259 139.016 168.727 139.142 169.203 139.142C169.679 139.142 170.146 139.016 170.558 138.777L188.736 128.274C188.858 128.203 188.96 128.101 189.031 127.978C189.102 127.856 189.139 127.716 189.139 127.575C189.139 127.433 189.102 127.294 189.031 127.171C188.96 127.048 188.858 126.946 188.736 126.875L156.072 108.063C155.661 107.827 155.196 107.702 154.721 107.702C154.247 107.702 153.781 107.827 153.37 108.063L135.18 118.514C135.057 118.585 134.955 118.687 134.884 118.81C134.813 118.933 134.775 119.072 134.775 119.214C134.774 119.356 134.811 119.496 134.881 119.619C134.952 119.742 135.053 119.845 135.175 119.917Z" fill="#E0E0E0"/>
<path d="M109.466 112.902L30.8782 158.383C30.2383 158.755 29.5123 158.952 28.7724 158.956C28.0324 158.96 27.3044 158.77 26.6607 158.405L6.24602 146.851C6.03397 146.729 5.85779 146.554 5.73527 146.342C5.61276 146.131 5.54825 145.89 5.54825 145.646C5.54825 145.401 5.61276 145.161 5.73527 144.95C5.85779 144.738 6.03397 144.562 6.24602 144.441L84.6861 99.1374C85.3243 98.7706 86.0466 98.5755 86.7827 98.5709C87.5188 98.5663 88.2435 98.7525 88.8863 99.1113L109.449 110.635C109.65 110.747 109.818 110.91 109.936 111.109C110.053 111.307 110.116 111.533 110.118 111.763C110.12 111.994 110.06 112.221 109.946 112.421C109.831 112.621 109.666 112.787 109.466 112.902Z" fill="#E0E0E0"/>
<path d="M122.045 158.548C133.955 158.548 143.611 152.973 143.611 146.095C143.611 139.218 133.955 133.642 122.045 133.642C110.134 133.642 100.479 139.218 100.479 146.095C100.479 152.973 110.134 158.548 122.045 158.548Z" fill="#E0E0E0"/>
<path d="M168.69 153.258C172.843 153.258 176.209 151.313 176.209 148.914C176.209 146.516 172.843 144.571 168.69 144.571C164.538 144.571 161.172 146.516 161.172 148.914C161.172 151.313 164.538 153.258 168.69 153.258Z" fill="#E0E0E0"/>
<path d="M168.933 80.4775L168.942 137.799L187.506 127.071V69.8054L168.933 80.4775Z" fill="#E6E6E6"/>
<path d="M137.404 119.591L168.942 137.799V80.5296L137.412 62.3779L137.404 119.591Z" fill="#EBEBEB"/>
<path d="M137.404 62.3215L168.942 80.5296L187.506 69.8054L155.981 51.6494L137.404 62.3215Z" fill="#F5F5F5"/>
<path d="M141.1 83.2834L165.063 97.1219C165.168 97.1819 165.287 97.2134 165.407 97.2132C165.528 97.2131 165.646 97.1813 165.751 97.1211C165.856 97.061 165.943 96.9744 166.003 96.8702C166.064 96.7659 166.096 96.6475 166.097 96.5269V84.3693C166.095 84.069 166.014 83.7745 165.862 83.5158C165.709 83.2571 165.49 83.0435 165.228 82.8968L141.304 69.1104C141.199 69.0503 141.08 69.0188 140.959 69.0192C140.838 69.0195 140.719 69.0516 140.615 69.1123C140.51 69.173 140.423 69.2602 140.363 69.3651C140.302 69.4699 140.27 69.5888 140.27 69.7098V81.811C140.268 82.1075 140.343 82.3996 140.488 82.658C140.634 82.9164 140.845 83.1321 141.1 83.2834Z" fill="#FAFAFA"/>
<path d="M155.286 80.2385C155.203 80.2378 155.123 80.2153 155.051 80.1734L150.821 77.741C150.724 77.6724 150.655 77.57 150.63 77.4538C150.604 77.3376 150.622 77.216 150.682 77.1127C150.741 77.0095 150.837 76.9321 150.95 76.8956C151.063 76.8592 151.186 76.8663 151.294 76.9157L155.525 79.3524C155.609 79.4074 155.673 79.4874 155.708 79.5811C155.743 79.6748 155.748 79.7772 155.722 79.8737C155.695 79.9702 155.639 80.0558 155.56 80.1183C155.482 80.1807 155.386 80.2167 155.286 80.2211V80.2385Z" fill="#E0E0E0"/>
<path d="M141.1 100.258L165.063 114.092C165.168 114.152 165.287 114.184 165.407 114.183C165.528 114.183 165.646 114.152 165.751 114.091C165.856 114.031 165.943 113.945 166.003 113.84C166.064 113.736 166.096 113.618 166.097 113.497V101.335C166.095 101.035 166.014 100.741 165.861 100.482C165.708 100.223 165.49 100.01 165.228 99.8627L141.304 86.1067C141.199 86.0467 141.081 86.0152 140.96 86.0154C140.84 86.0155 140.721 86.0473 140.616 86.1075C140.512 86.1677 140.425 86.2542 140.364 86.3585C140.303 86.4627 140.271 86.5811 140.27 86.7017V98.8028C140.271 99.0964 140.348 99.3847 140.493 99.6398C140.639 99.8948 140.848 100.108 141.1 100.258Z" fill="#FAFAFA"/>
<path d="M155.286 97.2087C155.204 97.2077 155.124 97.1868 155.051 97.1479L150.821 94.7112C150.724 94.6426 150.655 94.5402 150.63 94.424C150.604 94.3078 150.622 94.1862 150.682 94.0829C150.741 93.9797 150.837 93.9023 150.95 93.8658C151.063 93.8294 151.186 93.8366 151.294 93.8859L155.525 96.3227C155.609 96.3776 155.673 96.4577 155.708 96.5513C155.743 96.645 155.748 96.7474 155.722 96.8439C155.695 96.9404 155.639 97.026 155.56 97.0885C155.482 97.1509 155.386 97.1869 155.286 97.1914V97.2087Z" fill="#E0E0E0"/>
<path d="M141.1 117.228L165.063 131.062C165.168 131.122 165.287 131.154 165.407 131.154C165.528 131.153 165.646 131.122 165.751 131.062C165.856 131.001 165.943 130.915 166.003 130.811C166.064 130.706 166.096 130.588 166.097 130.467V118.305C166.095 118.005 166.014 117.711 165.861 117.452C165.708 117.194 165.49 116.98 165.228 116.833L141.304 103.046C141.199 102.987 141.081 102.955 140.96 102.955C140.84 102.955 140.721 102.987 140.616 103.047C140.512 103.107 140.425 103.194 140.364 103.298C140.303 103.403 140.271 103.521 140.27 103.642V115.747C140.267 116.045 140.341 116.339 140.487 116.599C140.632 116.859 140.844 117.076 141.1 117.228Z" fill="#FAFAFA"/>
<path d="M155.286 114.179C155.204 114.18 155.123 114.159 155.051 114.118L150.821 111.681C150.767 111.65 150.72 111.609 150.682 111.56C150.644 111.51 150.616 111.454 150.6 111.394C150.584 111.334 150.58 111.271 150.588 111.209C150.596 111.148 150.616 111.088 150.647 111.034C150.678 110.98 150.72 110.933 150.769 110.895C150.818 110.857 150.875 110.83 150.935 110.814C150.995 110.798 151.058 110.794 151.12 110.803C151.182 110.812 151.241 110.833 151.294 110.865L155.525 113.297C155.579 113.328 155.626 113.37 155.664 113.419C155.702 113.468 155.73 113.525 155.746 113.585C155.762 113.645 155.766 113.708 155.758 113.769C155.75 113.831 155.73 113.89 155.699 113.944C155.657 114.017 155.597 114.077 155.525 114.118C155.452 114.16 155.37 114.181 155.286 114.179Z" fill="#E0E0E0"/>
<path d="M157.119 22.7561V38.0758L170.389 45.7334V30.4138L157.119 22.7561Z" fill="#FAFAFA"/>
<path d="M158.557 23.5815L170.406 30.4139V44.0743L158.574 37.2463V23.5815M157.853 22.3392L157.136 22.7736V38.0933L170.406 45.7336L171.123 45.2992V30.0012L157.836 22.3392H157.853Z" fill="#E0E0E0"/>
<path d="M157.836 23.994L169.668 30.8264V44.4868L157.836 37.6544V23.994ZM157.119 22.7517V38.0714L170.406 45.7334V30.4137L157.119 22.7561V22.7517Z" fill="#EBEBEB"/>
<path d="M159.065 34.5706L169.103 40.3649L166.136 32.6507L164.086 35.0875L161.984 32.0991L159.065 34.5706Z" fill="#E0E0E0"/>
<path d="M162.548 29.758C162.565 30.0758 162.657 30.385 162.817 30.6605C162.976 30.936 163.198 31.17 163.465 31.3434C163.969 31.6344 164.381 31.3955 164.381 30.8135C164.364 30.4959 164.271 30.1869 164.112 29.9115C163.953 29.6361 163.731 29.402 163.465 29.2281C162.957 28.9371 162.548 29.1716 162.548 29.758Z" fill="#E0E0E0"/>
<path d="M174.363 41.2988V53.5042L184.931 59.6069V47.4015L174.363 41.2988Z" fill="#FAFAFA"/>
<path d="M175.505 41.9632L184.931 47.4014V58.308L175.505 52.8655V42.0067M174.932 41.012L174.363 41.3421V53.5475L184.931 59.6111L185.504 59.2809V47.0756L174.932 40.9946V41.012Z" fill="#E0E0E0"/>
<path d="M174.932 42.2935L184.357 47.7316V58.6165L174.932 53.1741V42.2935ZM174.363 41.2988V53.5042L184.931 59.6112V47.4058L174.363 41.3249V41.2988Z" fill="#EBEBEB"/>
<path d="M175.914 50.7112L183.906 55.3283L181.547 49.1822L179.91 51.1281L178.237 48.7435L175.914 50.7112Z" fill="#E0E0E0"/>
<path d="M178.685 46.8802C178.699 47.1334 178.772 47.3797 178.899 47.5993C179.025 47.8188 179.202 48.0055 179.414 48.1442C179.818 48.3744 180.144 48.1876 180.144 47.7098C180.131 47.4565 180.058 47.2099 179.931 46.9902C179.804 46.7705 179.627 46.584 179.414 46.4458C179.01 46.2243 178.685 46.4154 178.685 46.8802Z" fill="#E0E0E0"/>
<path d="M169.133 137.847C169.133 137.847 164.512 133.334 167.144 125.776C168.616 121.541 173.498 118.431 176.265 118.136C175.345 119.23 174.611 120.469 174.094 121.802L170.593 124.13L173.811 123.122L173.125 125.876C173.125 125.876 170.132 127.687 169.689 128.083L172.916 127.24C172.916 127.24 172.682 135.041 169.133 137.847Z" fill="#3638DA"/>
<path opacity="0.4" d="M169.133 137.847C169.133 137.847 164.512 133.334 167.144 125.776C168.616 121.541 173.498 118.431 176.265 118.136C175.345 119.23 174.611 120.469 174.094 121.802L170.593 124.13L173.811 123.122L173.125 125.876C173.125 125.876 170.132 127.687 169.689 128.083L172.916 127.24C172.916 127.24 172.682 135.041 169.133 137.847Z" fill="black"/>
<path d="M169.133 137.847C169.133 137.847 166.74 128.404 170.28 122.897C170.28 122.897 166.132 127.757 169.133 137.847Z" fill="white"/>
<path d="M174.419 139.124L168.773 139.054H168.716L163.07 139.124C163.07 139.124 163.004 146.074 165.15 148.923C165.745 149.679 167.131 150.226 168.751 150.226C170.371 150.226 171.765 149.692 172.356 148.923C174.484 146.082 174.419 139.124 174.419 139.124Z" fill="#37474F"/>
<path d="M174.419 139.124C174.419 140.809 171.878 142.164 168.738 142.164C165.598 142.164 163.057 140.796 163.057 139.124C163.057 137.452 165.602 136.083 168.738 136.083C171.874 136.083 174.419 137.439 174.419 139.124Z" fill="#455A64"/>
<path d="M168.738 138.316C170.693 138.316 172.347 138.941 172.934 139.81C173.077 139.609 173.155 139.37 173.16 139.124C173.16 137.921 171.179 136.952 168.738 136.952C166.297 136.952 164.316 137.929 164.316 139.124C164.32 139.371 164.401 139.611 164.546 139.81C165.128 138.941 166.783 138.316 168.738 138.316Z" fill="#263238"/>
<path d="M168.738 138.316C166.783 138.316 165.128 138.942 164.546 139.81C165.128 140.679 166.783 141.309 168.738 141.309C170.693 141.309 172.347 140.679 172.934 139.81C172.347 138.942 170.693 138.316 168.738 138.316Z" fill="#E0E0E0"/>
<path d="M168.807 140.188C168.807 140.188 166.636 140.106 164.742 137.195C163.964 135.997 163.591 135.367 163.591 135.367L166.631 135.137L163.213 134.268L161.597 131.796L164.433 131.584C163.264 131.176 162.046 130.923 160.811 130.832C160.811 130.832 158.205 126.211 157.427 125.55C159.413 125.671 161.355 126.19 163.137 127.076C164.919 127.961 166.504 129.196 167.8 130.706C172.087 135.792 169.446 140.318 168.807 140.188Z" fill="#3638DA"/>
<path d="M168.807 140.188C168.807 140.188 170.18 131.935 161.423 126.975C161.436 126.975 170.51 131.336 168.807 140.188Z" fill="white"/>
<path d="M168.807 140.188C168.807 140.188 170.792 140.318 172.76 137.873C173.572 136.861 173.968 136.327 173.968 136.327L171.235 135.836L174.402 135.402L176.092 133.321L173.551 132.865C174.644 132.606 175.767 132.494 176.891 132.53C176.891 132.53 179.688 128.621 180.439 128.083C178.644 128.003 176.851 128.283 175.166 128.906C173.481 129.53 171.938 130.485 170.627 131.714C166.266 135.914 168.234 140.245 168.807 140.188Z" fill="#3638DA"/>
<path opacity="0.2" d="M168.807 140.188C168.807 140.188 170.792 140.318 172.76 137.873C173.572 136.861 173.968 136.327 173.968 136.327L171.235 135.836L174.402 135.402L176.092 133.321L173.551 132.865C174.644 132.606 175.767 132.494 176.891 132.53C176.891 132.53 179.688 128.621 180.439 128.083C178.644 128.003 176.851 128.283 175.166 128.906C173.481 129.53 171.938 130.485 170.627 131.714C166.266 135.914 168.234 140.245 168.807 140.188Z" fill="black"/>
<path d="M168.807 140.188C168.807 140.188 168.347 132.617 176.704 128.96C176.704 128.96 168.108 132.04 168.807 140.188Z" fill="white"/>
<path d="M82.5751 34.7879L80.5988 33.9843L80.399 33.9018H80.3773C80.0229 33.7738 79.6449 33.725 79.2697 33.7588C78.8945 33.7926 78.5313 33.9081 78.2055 34.0972L10.3854 73.2412C8.96016 74.0626 7.77652 75.245 6.95374 76.6695C6.13095 78.0939 5.69808 79.71 5.69873 81.355V140.401C5.69907 141.029 5.86461 141.645 6.1787 142.188C6.49279 142.732 6.94437 143.183 7.48803 143.496C8.0317 143.81 8.64829 143.974 9.27584 143.974C9.90338 143.973 10.5198 143.808 11.063 143.494L78.9482 104.302C79.9168 103.742 80.721 102.937 81.2799 101.968C81.8388 100.999 82.1327 99.9 82.1321 98.7813V36.3733C82.1333 35.9263 82.0197 35.4866 81.8019 35.0963L82.5751 34.7879Z" fill="#3638DA"/>
<path opacity="0.3" d="M82.5751 34.7879L80.5988 33.9843L80.399 33.9018H80.3773C80.0229 33.7738 79.6449 33.725 79.2697 33.7588C78.8945 33.7926 78.5313 33.9081 78.2055 34.0972L10.3854 73.2412C8.96016 74.0626 7.77652 75.245 6.95374 76.6695C6.13095 78.0939 5.69808 79.71 5.69873 81.355V140.401C5.69907 141.029 5.86461 141.645 6.1787 142.188C6.49279 142.732 6.94437 143.183 7.48803 143.496C8.0317 143.81 8.64829 143.974 9.27584 143.974C9.90338 143.973 10.5198 143.808 11.063 143.494L78.9482 104.302C79.9168 103.742 80.721 102.937 81.2799 101.968C81.8388 100.999 82.1327 99.9 82.1321 98.7813V36.3733C82.1333 35.9263 82.0197 35.4866 81.8019 35.0963L82.5751 34.7879Z" fill="black"/>
<path d="M83.9303 37.0855V99.5152C83.931 100.634 83.6367 101.733 83.0769 102.701C82.5171 103.67 81.7118 104.474 80.7421 105.032L12.8569 144.228C12.3131 144.541 11.6966 144.705 11.0692 144.705C10.4418 144.704 9.82555 144.539 9.2822 144.225C8.73885 143.911 8.28751 143.46 7.97341 142.917C7.65932 142.374 7.49351 141.758 7.49261 141.131V82.0585C7.49299 80.4398 7.91355 78.8488 8.71315 77.4413C9.31878 76.3974 10.1932 75.535 11.2454 74.9438L81.3632 34.4576C82.0433 34.4788 82.6889 34.7617 83.1655 35.2472C83.6421 35.7327 83.913 36.3835 83.9216 37.0638L83.9303 37.0855Z" fill="#3638DA"/>
<path opacity="0.1" d="M83.9303 37.0855V99.5152C83.931 100.634 83.6367 101.733 83.0769 102.701C82.5171 103.67 81.7118 104.474 80.7421 105.032L12.8569 144.228C12.3131 144.541 11.6966 144.705 11.0692 144.705C10.4418 144.704 9.82555 144.539 9.2822 144.225C8.73885 143.911 8.28751 143.46 7.97341 142.917C7.65932 142.374 7.49351 141.758 7.49261 141.131V82.0585C7.49299 80.4398 7.91355 78.8488 8.71315 77.4413C9.31878 76.3974 10.1932 75.535 11.2454 74.9438L81.3632 34.4576C82.0433 34.4788 82.6889 34.7617 83.1655 35.2472C83.6421 35.7327 83.913 36.3835 83.9216 37.0638L83.9303 37.0855Z" fill="black"/>
<path d="M80.7421 105.032L12.8569 144.228C12.3314 144.535 11.7356 144.702 11.1269 144.712C10.5182 144.722 9.91722 144.574 9.38205 144.284L49.916 83.2791L83.9303 99.5109C83.9305 100.63 83.6359 101.729 83.0762 102.699C82.5166 103.668 81.7115 104.472 80.7421 105.032Z" fill="#3638DA"/>
<path opacity="0.2" d="M80.7421 105.032L12.8569 144.228C12.3314 144.535 11.7356 144.702 11.1269 144.712C10.5182 144.722 9.91722 144.574 9.38205 144.284L49.916 83.2791L83.9303 99.5109C83.9305 100.63 83.6359 101.729 83.0762 102.699C82.5166 103.668 81.7115 104.472 80.7421 105.032Z" fill="black"/>
<path d="M82.7879 34.9224L55.1065 92.8262C54.5613 93.9638 53.7871 94.9766 52.8324 95.8012C51.8776 96.6258 50.7629 97.2445 49.5581 97.6184C48.3532 97.9922 47.0841 98.1134 45.8303 97.9741C44.5764 97.8349 43.3649 97.4383 42.2714 96.8092L8.71317 77.4544C9.28598 76.4372 10.1216 75.5926 11.1325 75.009L81.3633 34.4576C81.8734 34.4697 82.3688 34.6313 82.7879 34.9224Z" fill="#3638DA"/>
<path d="M15.6802 58.8641L35.5649 47.3798V33.146L21.1139 41.1121C19.468 42.018 18.0955 43.3492 17.1397 44.9667C16.1839 46.5841 15.6798 48.4286 15.6802 50.3073V58.8641Z" fill="#3638DA"/>
<path opacity="0.5" d="M15.6802 58.8641L35.5649 47.3798V33.146L21.1139 41.1121C19.468 42.018 18.0955 43.3492 17.1397 44.9667C16.1839 46.5841 15.6798 48.4286 15.6802 50.3073V58.8641Z" fill="white"/>
<path d="M97.8687 3.74014L96.0487 2.71073C93.7373 1.37421 91.1134 0.673035 88.4434 0.678375C85.7734 0.683715 83.1524 1.39538 80.8463 2.74113L23.9763 35.8737C21.452 37.3438 19.3573 39.4504 17.9016 41.9831C16.4458 44.5158 15.6799 47.386 15.6802 50.3073C15.68 48.8066 16.0761 47.3324 16.8284 46.0339C17.5807 44.7354 18.6626 43.6586 19.9647 42.9124C21.2667 42.1661 22.7427 41.777 24.2434 41.7842C25.7441 41.7915 27.2162 42.1949 28.511 42.9536L30.8913 44.3479C33.3695 45.7985 35.4251 47.8722 36.8538 50.3631C38.2825 52.854 39.0346 55.6754 39.0354 58.547V143.046L35.1566 152.893L42.4407 148.458L100.996 114.483C103.076 113.277 104.802 111.546 106.001 109.462C107.2 107.379 107.83 105.016 107.828 102.612V21.0231C107.828 17.5223 106.908 14.083 105.16 11.0498C103.412 8.01659 100.897 5.49589 97.8687 3.74014Z" fill="#3638DA"/>
<path opacity="0.7" d="M97.8687 3.74014L96.0487 2.71073C93.7373 1.37421 91.1134 0.673035 88.4434 0.678375C85.7734 0.683715 83.1524 1.39538 80.8463 2.74113L23.9763 35.8737C21.452 37.3438 19.3573 39.4504 17.9016 41.9831C16.4458 44.5158 15.6799 47.386 15.6802 50.3073C15.68 48.8066 16.0761 47.3324 16.8284 46.0339C17.5807 44.7354 18.6626 43.6586 19.9647 42.9124C21.2667 42.1661 22.7427 41.777 24.2434 41.7842C25.7441 41.7915 27.2162 42.1949 28.511 42.9536L30.8913 44.3479C33.3695 45.7985 35.4251 47.8722 36.8538 50.3631C38.2825 52.854 39.0346 55.6754 39.0354 58.547V143.046L35.1566 152.893L42.4407 148.458L100.996 114.483C103.076 113.277 104.802 111.546 106.001 109.462C107.2 107.379 107.83 105.016 107.828 102.612V21.0231C107.828 17.5223 106.908 14.083 105.16 11.0498C103.412 8.01659 100.897 5.49589 97.8687 3.74014Z" fill="white"/>
<path d="M18.0387 145.214C18.0387 145.214 22.1173 151.177 28.6717 153.154C35.7213 155.278 39.0354 150.604 39.0354 144.406V133.195L18.0387 145.214Z" fill="#3638DA"/>
<path opacity="0.5" d="M18.0387 145.214C18.0387 145.214 22.1173 151.177 28.6717 153.154C35.7213 155.278 39.0354 150.604 39.0354 144.406V133.195L18.0387 145.214Z" fill="white"/>
<path d="M51.7055 85.238C51.5647 85.2359 51.4283 85.1879 51.3172 85.1012C51.2062 85.0146 51.1264 84.894 51.09 84.7579C51.0536 84.6218 51.0627 84.4776 51.1158 84.347C51.1689 84.2165 51.2631 84.1069 51.3841 84.0348L94.8195 58.9465C94.9676 58.8613 95.1434 58.8383 95.3084 58.8827C95.4733 58.9271 95.6139 59.0352 95.6991 59.1833C95.7844 59.3313 95.8073 59.5071 95.7629 59.6721C95.7185 59.837 95.6104 59.9776 95.4624 60.0628L52.027 85.1511C51.929 85.2071 51.8183 85.237 51.7055 85.238Z" fill="white"/>
<path d="M51.7056 94.859C51.5643 94.8587 51.427 94.8119 51.315 94.7258C51.203 94.6397 51.1225 94.5191 51.0859 94.3826C51.0493 94.2461 51.0587 94.1014 51.1126 93.9708C51.1665 93.8403 51.2619 93.7311 51.3841 93.6601L94.8196 68.5675C94.9676 68.4823 95.1434 68.4593 95.3084 68.5037C95.4733 68.5481 95.6139 68.6562 95.6991 68.8042C95.7844 68.9523 95.8073 69.1281 95.7629 69.293C95.7185 69.458 95.6104 69.5985 95.4624 69.6838L52.027 94.7938C51.927 94.8422 51.8165 94.8646 51.7056 94.859Z" fill="white"/>
<path d="M51.7056 104.476C51.5643 104.475 51.427 104.428 51.315 104.342C51.203 104.256 51.1225 104.136 51.0859 103.999C51.0493 103.863 51.0587 103.718 51.1126 103.587C51.1665 103.457 51.2619 103.348 51.3841 103.277L94.8196 78.1884C94.9664 78.1121 95.137 78.0953 95.2959 78.1417C95.4548 78.188 95.5897 78.2938 95.6726 78.4371C95.7554 78.5803 95.7798 78.7501 95.7406 78.9109C95.7015 79.0717 95.6018 79.2112 95.4624 79.3004L52.027 104.389C51.929 104.445 51.8184 104.475 51.7056 104.476Z" fill="white"/>
<path d="M51.7056 114.092C51.5643 114.092 51.427 114.045 51.315 113.959C51.203 113.873 51.1225 113.752 51.0859 113.616C51.0493 113.479 51.0587 113.335 51.1126 113.204C51.1665 113.073 51.2619 112.964 51.3841 112.893L94.8196 87.805C94.9664 87.7287 95.137 87.7119 95.2959 87.7582C95.4548 87.8045 95.5897 87.9104 95.6726 88.0536C95.7554 88.1969 95.7798 88.3666 95.7406 88.5274C95.7015 88.6883 95.6018 88.8278 95.4624 88.9169L52.027 114.005C51.9298 114.063 51.8186 114.093 51.7056 114.092Z" fill="white"/>
<path d="M51.7056 123.709C51.5643 123.709 51.427 123.662 51.315 123.576C51.203 123.49 51.1225 123.369 51.0859 123.232C51.0493 123.096 51.0587 122.951 51.1126 122.821C51.1665 122.69 51.2619 122.581 51.3841 122.51L94.8196 97.4217C94.9664 97.3454 95.137 97.3286 95.2959 97.3749C95.4548 97.4212 95.5897 97.5271 95.6726 97.6704C95.7554 97.8136 95.7798 97.9833 95.7406 98.1442C95.7015 98.305 95.6018 98.4445 95.4624 98.5336L52.027 123.622C51.9298 123.68 51.8186 123.71 51.7056 123.709Z" fill="white"/>
<path d="M80.2296 116.855C80.1167 116.855 80.0056 116.826 79.9079 116.77C79.8102 116.713 79.7293 116.631 79.6736 116.533C79.5913 116.387 79.5697 116.213 79.6136 116.051C79.6574 115.889 79.7632 115.75 79.9082 115.665L94.8282 107.038C94.9751 106.962 95.1457 106.945 95.3046 106.992C95.4635 107.038 95.5984 107.144 95.6813 107.287C95.7641 107.43 95.7885 107.6 95.7493 107.761C95.7102 107.922 95.6105 108.061 95.4711 108.15L80.551 116.772C80.4527 116.827 80.342 116.855 80.2296 116.855Z" fill="white"/>
<path d="M81.954 49.0301L69.4359 56.2578V50.09C69.4359 45.8029 72.042 40.8208 75.2606 38.9618L76.1293 38.4623C79.3435 36.6033 81.954 38.5752 81.954 42.8623V49.0301Z" fill="#3638DA"/>
<path d="M84.8685 51.0761L66.5214 61.67L69.4359 54.9202L81.954 47.6925L84.8685 51.0761Z" fill="#3638DA"/>
<path d="M75.7166 40.7471C75.1737 41.0599 74.735 40.8079 74.735 40.1825V37.7805C74.7539 37.4402 74.8526 37.1092 75.0231 36.8142C75.1937 36.5191 75.4312 36.2684 75.7166 36.0822C76.2552 35.7694 76.6939 36.0213 76.6939 36.6468V39.0531C76.6748 39.3923 76.5765 39.7222 76.4067 40.0164C76.237 40.3106 76.0006 40.5609 75.7166 40.7471Z" fill="#3638DA"/>
<path d="M73.61 58.4816C73.6621 59.7282 74.5743 60.2191 75.6949 59.5719C76.2821 59.1879 76.7745 58.6757 77.1349 58.0738C77.4953 57.4718 77.7143 56.7959 77.7755 56.097L73.61 58.4816Z" fill="#3638DA"/>
<path d="M137.404 39.7003C142.448 39.7003 146.538 35.6107 146.538 30.5659C146.538 25.521 142.448 21.4314 137.404 21.4314C132.359 21.4314 128.269 25.521 128.269 30.5659C128.269 35.6107 132.359 39.7003 137.404 39.7003Z" fill="#3638DA"/>
<path d="M135.775 37.6676C135.775 37.6676 136.591 40.5691 133.286 43.2621C133.286 43.2621 138.377 42.7495 138.655 37.9108L135.775 37.6676Z" fill="#3638DA"/>
<path d="M138.303 31.4084H136.339L135.849 26.6957H138.794L138.303 31.4084ZM137.321 34.4489C137.14 34.4613 136.959 34.437 136.788 34.3776C136.617 34.3182 136.459 34.2249 136.325 34.1032C136.191 33.9816 136.082 33.8341 136.007 33.6696C135.931 33.5051 135.889 33.3269 135.883 33.1458C135.922 32.7918 136.091 32.4645 136.356 32.2269C136.621 31.9892 136.965 31.8577 137.321 31.8577C137.677 31.8577 138.021 31.9892 138.286 32.2269C138.552 32.4645 138.72 32.7918 138.759 33.1458C138.752 33.3262 138.71 33.5034 138.633 33.6669C138.557 33.8303 138.448 33.9768 138.314 34.0976C138.18 34.2183 138.023 34.3109 137.852 34.3697C137.682 34.4286 137.501 34.4526 137.321 34.4402V34.4489Z" fill="white"/>
<path d="M119.369 65.8744C118.429 65.8016 117.485 65.9617 116.622 66.3405C115.758 66.7193 115.001 67.3052 114.418 68.0462C112.485 70.5915 108.393 76.6117 108.393 76.6117C108.393 76.6117 106.682 74.7136 105.561 73.3801C104.441 72.0466 103.389 70.9173 103.389 70.9173C103.242 70.1996 103.132 69.4747 103.059 68.7455C102.964 67.7118 102.825 67.0081 102.069 66.3001C101.313 65.5921 100.735 64.9276 100.675 64.389C100.614 63.8504 100.24 63.3118 99.7625 63.8634C99.2847 64.415 99.3282 66.109 100.327 67.2383C100.327 67.2383 98.542 66.4087 97.7211 65.4357C96.9001 64.4628 95.8403 62.7688 95.3712 63.2379C94.9021 63.707 94.003 68.7586 95.3712 69.8835C96.7394 71.0085 100.123 72.924 100.123 72.924C100.123 72.924 104.545 83.7481 107.655 83.7481C110.765 83.7481 115.907 75.7473 115.907 75.7473L119.369 65.8744Z" fill="#FFA8A7"/>
<path d="M113.849 122.384L114.809 137.07C114.809 137.07 115.677 138.625 117.35 138.625L118.87 136.965C118.849 135.001 119.013 133.039 119.361 131.106C119.925 128.139 121.02 123.8 121.337 121.294L113.849 122.384Z" fill="#FFA8A7"/>
<path d="M114.713 89.208C114.713 89.208 113.948 94.1466 113.571 98.9506C113.271 102.782 113.075 108.094 113.006 110.087C112.989 110.609 113.001 111.131 113.041 111.651L113.849 122.384C113.849 122.384 118.596 124.469 121.346 121.294C121.346 121.294 121.68 118.219 121.202 116.082C120.922 114.732 120.957 113.337 121.302 112.003L124.277 100.049V89.1038L114.713 89.208Z" fill="#37474F"/>
<path d="M117.019 93.3041C117.22 94.1818 117.658 94.9878 118.284 95.6348C118.91 96.2818 119.702 96.745 120.572 96.9744L122.349 107.79L124.955 98.3122V93.3041H117.019Z" fill="#263238"/>
<path d="M126.254 124.573L129.255 141.126H132.5C132.5 141.126 133.729 127.179 133.664 123.374L126.254 124.573Z" fill="#FFA8A7"/>
<path d="M116.229 89.0994C116.229 89.0994 115.595 95.4887 121.311 96.0491L124.277 115.078L126.254 124.569C126.254 124.569 130.884 127.588 133.664 123.37C133.664 123.37 133.946 118.592 132.795 115.3C132.495 114.444 132.371 113.537 132.43 112.633C132.752 107.968 133.638 94.2812 133.203 91.2494L130.345 87.5096L116.229 89.0994Z" fill="#37474F"/>
<path d="M126.636 66.5608H129.537L131.479 76.2513L130.202 80.3994C129.932 81.2592 129.994 82.189 130.376 83.0055C131.244 84.8993 132.856 88.6 133.208 91.2582C132.395 91.3177 131.582 91.1557 130.855 90.7892C130.127 90.4228 129.513 89.8658 129.077 89.1777C129.077 89.1777 126.64 92.3875 120.711 92.3875C117.836 92.3875 115.499 90.2722 114.713 89.2124L115.777 84.4084C115.865 84.0183 115.897 83.6175 115.873 83.2183C115.816 82.2236 115.708 80.1778 115.734 78.6228C115.734 78.6228 112.98 77.5283 113.688 74.1403C114.396 70.7523 119.369 65.8876 119.369 65.8876L121.502 65.9701L126.636 66.5608Z" fill="#3638DA"/>
<path d="M119.639 47.8836C119.639 47.8836 116.12 46.663 115.26 50.2638C114.4 53.8646 117.05 57.3612 113.089 58.56C113.089 58.56 115.425 60.5059 117.484 56.8704L119.222 64.2544C119.222 64.2544 119.222 64.6583 118.605 64.9667C118.605 64.9667 128.595 67.1906 130.519 62.2042C130.784 62.4912 130.965 62.8458 131.042 63.229C131.118 63.6122 131.088 64.0091 130.953 64.376C130.953 64.376 133.903 63.1815 133.073 59.3635C133.073 59.3635 135.406 59.2984 135.962 57.4003C135.962 57.4003 132.23 57.5783 132.252 53.4607C132.278 48.7045 129.776 49.3951 129.776 49.3951C129.776 49.3951 126.714 44.8431 119.639 47.8836Z" fill="#455A64"/>
<path d="M121.502 62.7818V65.9569C121.502 65.9569 118.214 69.6142 121.419 69.9052C124.625 70.1962 126.632 66.5607 126.632 66.5607V59.8456L121.502 62.7818Z" fill="#FFA8A7"/>
<path d="M126.58 58.7859V58.9683C125.437 63.4856 122.462 64.4672 121.502 64.6974L121.467 57.7087L126.436 57.6826L126.58 58.7859Z" fill="#F28F8F"/>
<path d="M121.828 48.7521C119.93 48.9085 115.986 50.2941 115.929 55.2935C115.873 60.2929 116.633 64.1066 119.226 64.2629C121.819 64.4193 127.609 62.0911 127.878 55.5758C128.148 49.0605 123.674 48.5784 121.828 48.7521Z" fill="#FFA8A7"/>
<path d="M119.426 57.2787L119.473 60.2149L117.745 59.7154L119.426 57.2787Z" fill="#F28F8F"/>
<path d="M122.006 57.2004C122.008 57.3193 121.976 57.4363 121.911 57.5364C121.847 57.6366 121.755 57.7155 121.646 57.763C121.537 57.8104 121.416 57.8244 121.299 57.8032C121.182 57.7819 121.074 57.7263 120.989 57.6434C120.904 57.5606 120.845 57.4542 120.82 57.3379C120.796 57.2216 120.806 57.1005 120.85 56.9902C120.895 56.8798 120.971 56.7851 121.069 56.7181C121.167 56.6512 121.283 56.6149 121.402 56.614C121.48 56.6123 121.558 56.6262 121.631 56.6548C121.704 56.6834 121.77 56.7263 121.827 56.7809C121.883 56.8354 121.928 56.9006 121.958 56.9726C121.989 57.0447 122.005 57.1221 122.006 57.2004Z" fill="#263238"/>
<path d="M118.066 56.8398C118.068 56.9184 118.054 56.9964 118.025 57.0696C117.997 57.1427 117.954 57.2095 117.9 57.266C117.845 57.3225 117.78 57.3677 117.708 57.3989C117.636 57.4302 117.558 57.4468 117.48 57.4479C117.361 57.4505 117.244 57.4178 117.144 57.3539C117.044 57.29 116.965 57.1978 116.918 57.089C116.87 56.9803 116.856 56.8598 116.877 56.743C116.898 56.6261 116.953 56.5181 117.035 56.4326C117.118 56.3471 117.224 56.2881 117.34 56.2629C117.456 56.2377 117.577 56.2476 117.687 56.2912C117.798 56.3348 117.892 56.4103 117.96 56.5079C118.027 56.6056 118.064 56.7211 118.066 56.8398Z" fill="#263238"/>
<path d="M121.042 61.1661C120.391 61.3322 119.75 61.5352 119.122 61.7742C119.122 61.7742 118.944 60.7535 119.791 60.5189C120.042 60.4658 120.304 60.5013 120.532 60.6192C120.76 60.7372 120.94 60.9304 121.042 61.1661Z" fill="#F28F8F"/>
<path d="M117.849 54.6292L116.689 55.3371C116.689 55.3371 117.124 55.7976 117.584 55.5109C117.712 55.4076 117.805 55.2682 117.853 55.1109C117.9 54.9536 117.899 54.7857 117.849 54.6292Z" fill="#263238"/>
<path d="M124.877 57.1831C124.877 57.1831 124.833 59.0334 126.045 59.0334H128.421V55.0243C128.421 50.5244 125.007 45.8247 117.745 49.5428C117.745 49.5428 117.319 55.8018 124.877 57.1831Z" fill="#455A64"/>
<path d="M116.872 58.9335C115.742 58.9335 114.822 58.1516 114.822 57.196C114.822 56.2405 115.742 55.4586 116.872 55.4586C118.001 55.4586 118.922 56.2405 118.922 57.196C118.922 58.1516 118.001 58.9335 116.872 58.9335ZM116.872 55.7931C115.938 55.7931 115.178 56.4185 115.178 57.183C115.178 57.9475 115.938 58.5773 116.872 58.5773C117.806 58.5773 118.566 57.9518 118.566 57.183C118.566 56.4142 117.806 55.7931 116.872 55.7931Z" fill="#3638DA"/>
<path d="M121.915 58.9466C120.651 58.9466 119.617 58.156 119.617 57.1831C119.617 56.2101 120.651 55.4457 121.915 55.4457C123.179 55.4457 124.212 56.2362 124.212 57.1831C124.212 58.13 123.183 58.9466 121.915 58.9466ZM121.915 55.8018C120.859 55.8018 119.995 56.423 119.995 57.1831C119.995 57.9432 120.863 58.5687 121.915 58.5687C122.966 58.5687 123.834 57.9476 123.834 57.1831C123.834 56.4186 122.974 55.8018 121.915 55.8018Z" fill="#3638DA"/>
<path d="M119.808 56.9962H118.744V57.3741H119.808V56.9962Z" fill="#3638DA"/>
<path d="M126.771 56.9962H124.026V57.3741H126.771V56.9962Z" fill="#3638DA"/>
<path d="M126.037 58.7901C126.022 58.3317 126.111 57.8758 126.297 57.4567C126.388 57.1957 126.553 56.967 126.772 56.7987C126.992 56.6305 127.255 56.53 127.531 56.5098C128.947 56.4881 129.121 57.8519 129.099 58.3341C129.034 59.6067 127.991 60.9706 126.058 61.001L126.037 58.7901Z" fill="#FFA8A7"/>
<path d="M129.538 66.5608C129.538 66.5608 126.228 74.4747 131.479 76.2512L132.63 73.7928C132.63 73.7928 142.238 64.9928 144.588 63.0642C146.938 61.1357 143.923 58.2864 141.009 55.6151C138.094 52.9438 135.171 50.3594 135.171 50.3594L133.712 47.775C133.551 47.4928 133.333 47.2477 133.071 47.0561C132.809 46.8644 132.509 46.7305 132.191 46.663C130.662 46.346 127.783 45.7943 126.228 45.8855C124.056 46.0028 127.335 48.7088 127.887 48.7088C128.384 48.7237 128.869 48.8656 129.295 49.1211C129.722 49.3766 130.076 49.7371 130.324 50.1683C130.984 51.3454 131.101 53.465 133.208 53.3695L138.09 60.6623L129.538 66.5608Z" fill="#FFA8A7"/>
<path d="M138.09 60.6622L139.784 62.8297L137.143 61.3181L138.09 60.6622Z" fill="#F28F8F"/>
<path d="M108.393 76.6161L109.9 78.3579L109.027 75.6909L108.393 76.6161Z" fill="#F28F8F"/>
<path opacity="0.2" d="M121.411 78.7792C121.411 78.7792 125.754 79.131 127.101 75.0046C127.101 75.0046 127.153 80.2647 121.411 78.7792Z" fill="black"/>
<path d="M114.396 137.704C114.396 137.704 113.792 135.81 114.726 135.71C115.66 135.61 117.31 136.105 117.476 136.6C117.576 136.928 117.618 137.271 117.597 137.612C118.053 137.458 118.484 137.24 118.878 136.965V136.266C118.878 136.266 119.851 136.362 119.925 137.091C119.999 137.821 120.012 138.711 120.043 139.541C120.099 141.218 120.347 142.338 118.44 142.833C117.08 143.175 115.853 143.913 114.913 144.953C114.261 145.641 113.449 146.158 112.55 146.457C111.651 146.756 110.691 146.829 109.757 146.669C106.886 146.269 107.051 143.845 108.063 143.068C109.036 142.352 110.076 141.732 111.169 141.218L114.396 137.704Z" fill="#3638DA"/>
<path d="M113.371 143.059C113.328 143.06 113.285 143.049 113.248 143.027C113.211 143.005 113.181 142.972 113.162 142.933C112.702 142.192 111.969 141.66 111.121 141.452C111.09 141.446 111.061 141.433 111.035 141.415C111.009 141.397 110.987 141.374 110.97 141.347C110.953 141.32 110.941 141.291 110.936 141.259C110.931 141.228 110.931 141.196 110.938 141.166C110.945 141.135 110.958 141.106 110.976 141.081C110.993 141.056 111.016 141.034 111.042 141.017C111.069 141.001 111.098 140.99 111.129 140.985C111.159 140.979 111.191 140.98 111.221 140.987C111.71 141.105 112.17 141.32 112.575 141.618C112.98 141.917 113.322 142.293 113.579 142.725C113.599 142.761 113.609 142.801 113.608 142.842C113.608 142.883 113.596 142.923 113.575 142.958C113.554 142.994 113.524 143.023 113.488 143.043C113.452 143.063 113.412 143.073 113.371 143.072V143.059Z" fill="#FAFAFA"/>
<path d="M114.47 141.887C114.427 141.888 114.384 141.876 114.347 141.854C114.31 141.832 114.28 141.799 114.261 141.761C113.8 141.019 113.068 140.487 112.22 140.279C112.158 140.266 112.105 140.229 112.071 140.176C112.036 140.123 112.024 140.059 112.037 139.997C112.044 139.966 112.056 139.937 112.073 139.911C112.091 139.885 112.114 139.863 112.14 139.846C112.166 139.829 112.196 139.818 112.227 139.812C112.258 139.807 112.289 139.808 112.32 139.815C112.809 139.932 113.27 140.146 113.675 140.445C114.08 140.743 114.421 141.12 114.678 141.552C114.708 141.607 114.714 141.672 114.696 141.732C114.678 141.792 114.638 141.843 114.583 141.873C114.546 141.886 114.508 141.89 114.47 141.887Z" fill="#FAFAFA"/>
<path d="M115.569 140.714C115.526 140.714 115.484 140.702 115.447 140.68C115.41 140.658 115.38 140.626 115.36 140.588C114.897 139.848 114.165 139.318 113.319 139.107C113.258 139.092 113.205 139.054 113.172 139.002C113.139 138.949 113.128 138.885 113.141 138.824C113.146 138.794 113.158 138.765 113.175 138.739C113.192 138.713 113.215 138.691 113.241 138.674C113.267 138.657 113.296 138.645 113.326 138.64C113.357 138.634 113.388 138.635 113.419 138.642C113.908 138.76 114.37 138.974 114.775 139.272C115.181 139.571 115.523 139.947 115.782 140.379C115.811 140.435 115.817 140.5 115.798 140.561C115.779 140.621 115.737 140.671 115.682 140.701C115.645 140.714 115.607 140.718 115.569 140.714Z" fill="#FAFAFA"/>
<path d="M129.255 141.126C129.22 140.941 129.228 140.75 129.278 140.568C129.329 140.386 129.421 140.218 129.547 140.078C129.673 139.938 129.83 139.828 130.006 139.758C130.181 139.689 130.37 139.66 130.558 139.676C132.079 139.676 133.164 139.719 133.03 140.848V141.656C133.03 141.656 133.03 145.683 133.334 146.986C133.638 148.289 134.385 152.415 131.284 153.019C128.182 153.623 127.053 150.978 127.618 148.471C127.968 147.059 128.18 145.616 128.252 144.163C128.321 143.246 127.97 139.893 128.977 139.676L129.255 141.126Z" fill="#3638DA"/>
<path d="M132.096 146.113C132.056 146.112 132.017 146.1 131.983 146.078C131.195 145.7 130.291 145.646 129.464 145.926C129.435 145.937 129.404 145.942 129.373 145.941C129.341 145.94 129.311 145.933 129.283 145.92C129.254 145.907 129.229 145.889 129.208 145.866C129.187 145.843 129.17 145.816 129.16 145.787C129.148 145.758 129.143 145.726 129.144 145.695C129.145 145.664 129.152 145.633 129.165 145.604C129.178 145.575 129.196 145.55 129.219 145.528C129.242 145.506 129.269 145.49 129.299 145.479C129.773 145.315 130.276 145.248 130.777 145.28C131.278 145.312 131.767 145.443 132.217 145.665C132.272 145.697 132.312 145.749 132.328 145.81C132.344 145.871 132.336 145.936 132.304 145.991C132.284 146.028 132.254 146.059 132.217 146.081C132.18 146.102 132.138 146.113 132.096 146.113Z" fill="#FAFAFA"/>
<path d="M132.261 144.31C132.22 144.308 132.18 144.298 132.144 144.28C131.358 143.899 130.455 143.843 129.629 144.123C129.599 144.139 129.567 144.149 129.533 144.151C129.5 144.154 129.466 144.149 129.435 144.138C129.403 144.126 129.375 144.108 129.351 144.084C129.327 144.061 129.309 144.032 129.297 144.001C129.285 143.97 129.28 143.936 129.282 143.903C129.284 143.869 129.293 143.836 129.309 143.807C129.325 143.777 129.347 143.752 129.374 143.731C129.4 143.711 129.431 143.696 129.464 143.689C129.937 143.523 130.439 143.455 130.94 143.487C131.44 143.519 131.93 143.651 132.378 143.876C132.405 143.891 132.429 143.911 132.449 143.935C132.468 143.959 132.483 143.987 132.491 144.017C132.499 144.047 132.502 144.079 132.498 144.109C132.495 144.14 132.485 144.17 132.469 144.197C132.447 144.232 132.417 144.261 132.38 144.281C132.344 144.301 132.302 144.311 132.261 144.31Z" fill="#FAFAFA"/>
<path d="M132.426 142.534C132.385 142.532 132.345 142.521 132.309 142.503C131.521 142.126 130.618 142.07 129.789 142.347C129.76 142.363 129.727 142.374 129.693 142.376C129.659 142.379 129.625 142.374 129.593 142.363C129.561 142.351 129.533 142.333 129.508 142.309C129.484 142.285 129.466 142.256 129.454 142.224C129.442 142.192 129.438 142.158 129.44 142.124C129.443 142.09 129.453 142.057 129.469 142.028C129.486 141.998 129.509 141.973 129.536 141.953C129.564 141.933 129.595 141.919 129.629 141.912C130.102 141.747 130.604 141.678 131.105 141.71C131.606 141.742 132.095 141.874 132.543 142.099C132.57 142.114 132.594 142.134 132.614 142.159C132.633 142.183 132.648 142.211 132.656 142.241C132.665 142.271 132.667 142.302 132.663 142.333C132.66 142.364 132.65 142.394 132.634 142.421C132.613 142.456 132.582 142.485 132.545 142.505C132.509 142.525 132.468 142.535 132.426 142.534Z" fill="#FAFAFA"/>
<path d="M110.083 141.774C109.379 142.158 108.704 142.594 108.063 143.077C107.051 143.854 106.886 146.278 109.757 146.678C110.966 146.876 112.207 146.693 113.306 146.152C113.171 145.213 112.806 144.322 112.244 143.558C111.682 142.794 110.939 142.181 110.083 141.774Z" fill="white"/>
<path d="M118.44 142.464C117.08 142.806 115.852 143.543 114.913 144.584C114.261 145.272 113.449 145.789 112.55 146.088C111.651 146.387 110.691 146.46 109.757 146.299C108.15 146.078 107.494 145.218 107.407 144.367C107.325 145.322 107.915 146.412 109.757 146.669C110.691 146.829 111.651 146.756 112.55 146.457C113.449 146.158 114.261 145.641 114.913 144.953C115.852 143.913 117.08 143.175 118.44 142.833C119.943 142.447 120.108 141.665 120.082 140.531C120.051 141.465 119.773 142.138 118.44 142.464Z" fill="#37474F"/>
<path d="M133.612 148.571C132.828 147.772 131.761 147.314 130.642 147.295C129.523 147.277 128.441 147.699 127.631 148.471C127.066 150.978 128.195 153.623 131.297 153.019C133.547 152.563 133.777 150.296 133.612 148.571Z" fill="#F5F5F5"/>
<path d="M131.314 152.528C128.821 153.015 127.605 151.399 127.513 149.444C127.409 151.616 128.612 153.544 131.314 153.019C133.316 152.628 133.716 150.778 133.668 149.162C133.603 150.643 133.095 152.176 131.314 152.528Z" fill="#455A64"/>
</svg>
