<svg width="505" height="506" viewBox="0 0 505 506" fill="none" xmlns="http://www.w3.org/2000/svg">
<g clip-path="url(#clip0_1526_3681)">
<path d="M503.584 382.405L4.61206 388.412L4.61507 388.662L503.587 382.655L503.584 382.405Z" fill="#EBEBEB"/>
<path d="M453.781 399.096L420.729 399.494L420.732 399.744L453.784 399.346L453.781 399.096Z" fill="#EBEBEB"/>
<path d="M335.378 403.242L326.706 403.346L326.709 403.595L335.381 403.491L335.378 403.242Z" fill="#EBEBEB"/>
<path d="M419.62 390.226L400.469 390.457L400.472 390.706L419.623 390.475L419.62 390.226Z" fill="#EBEBEB"/>
<path d="M100.168 395.752L57.0664 396.271L57.0694 396.521L100.171 396.002L100.168 395.752Z" fill="#EBEBEB"/>
<path d="M115.377 395.569L109.06 395.645L109.063 395.894L115.38 395.818L115.377 395.569Z" fill="#EBEBEB"/>
<path d="M229.452 398.416L135.965 399.542L135.968 399.792L229.455 398.666L229.452 398.416Z" fill="#EBEBEB"/>
<path d="M240.588 340.966L47.8949 343.286C46.3853 343.301 44.9313 342.716 43.8519 341.659C42.7725 340.601 42.1561 339.157 42.1379 337.645L38.8704 66.2259C38.8654 64.7219 39.4529 63.2766 40.5052 62.2041C41.5575 61.1315 42.9896 60.5183 44.4905 60.4977L237.184 58.1779C238.695 58.1597 240.151 58.7439 241.233 59.8018C242.315 60.8597 242.932 62.3048 242.951 63.8191L246.218 335.188C246.236 336.702 245.653 338.162 244.597 339.245C243.541 340.329 242.099 340.948 240.588 340.966ZM44.4929 60.6977C43.0496 60.7177 41.6732 61.3107 40.6658 62.3466C39.6585 63.3825 39.1025 64.7766 39.1199 66.2229L42.3874 337.642C42.4048 339.088 42.9942 340.468 44.0262 341.48C45.0582 342.491 46.4485 343.051 47.8919 343.036L240.585 340.716C242.029 340.696 243.407 340.103 244.416 339.068C245.425 338.032 245.983 336.638 245.968 335.191L242.701 63.7721C242.68 62.3249 242.089 60.9447 241.055 59.9336C240.022 58.9226 238.63 58.3632 237.186 58.3779L44.4929 60.6977Z" fill="#EBEBEB"/>
<path d="M456.454 338.368L263.751 340.687C262.24 340.703 260.785 340.118 259.704 339.061C258.623 338.003 258.004 336.56 257.984 335.046L254.716 63.6275C254.714 62.1225 255.303 60.6772 256.357 59.605C257.411 58.5327 258.844 57.9198 260.346 57.8992L453.049 55.5793C454.549 55.5665 455.992 56.1462 457.068 57.1928C458.144 58.2395 458.764 59.6687 458.796 61.1707L462.063 332.589C462.081 334.1 461.501 335.557 460.45 336.64C459.398 337.723 457.961 338.344 456.454 338.368ZM260.349 58.0992C258.904 58.1192 257.527 58.7119 256.518 59.7476C255.509 60.7832 254.951 62.1773 254.966 63.6245L258.233 335.043C258.253 336.49 258.845 337.871 259.878 338.882C260.912 339.893 262.303 340.452 263.748 340.437L456.451 338.118C457.895 338.098 459.272 337.505 460.281 336.469C461.29 335.434 461.848 334.039 461.834 332.592L458.566 61.1735C458.546 59.7263 457.954 58.346 456.921 57.335C455.887 56.324 454.496 55.7646 453.052 55.7793L260.349 58.0992Z" fill="#EBEBEB"/>
<path d="M127.698 115.732L68.1702 116.448L69.2406 205.365L128.768 204.648L127.698 115.732Z" fill="#E6E6E6"/>
<path d="M128.768 204.658L129.706 204.647L128.636 115.731L127.698 115.742L128.768 204.658Z" fill="#E0E0E0"/>
<path d="M125.364 201.319L124.375 119.152L71.5838 119.788L72.5729 201.954L125.364 201.319Z" fill="#FAFAFA"/>
<path d="M108.374 153.688C113.818 148.1 113.711 139.148 108.134 133.692C102.556 128.237 93.6218 128.344 88.1776 133.933C82.7335 139.521 82.8412 148.473 88.4184 153.929C93.9955 159.384 102.93 159.277 108.374 153.688Z" fill="#F0F0F0"/>
<path d="M115.945 165.918L81.1272 166.338L81.1702 169.907L115.988 169.488L115.945 165.918Z" fill="#EBEBEB"/>
<path d="M116.06 175.418L81.2415 175.837L81.2844 179.407L116.103 178.988L116.06 175.418Z" fill="#EBEBEB"/>
<path d="M116.174 184.908L81.3557 185.327L81.3987 188.897L116.217 188.478L116.174 184.908Z" fill="#EBEBEB"/>
<path d="M202.658 127.641L143.13 128.357L144.201 217.274L203.728 216.557L202.658 127.641Z" fill="#E6E6E6"/>
<path d="M203.728 216.547L204.666 216.536L203.596 127.619L202.658 127.631L203.728 216.547Z" fill="#E0E0E0"/>
<path d="M200.325 213.228L199.335 131.061L146.544 131.697L147.533 213.863L200.325 213.228Z" fill="#FAFAFA"/>
<path d="M186.99 158.782C188.688 151.16 183.899 143.601 176.293 141.899C168.686 140.196 161.143 144.995 159.444 152.617C157.746 160.238 162.535 167.797 170.141 169.5C177.748 171.202 185.291 166.404 186.99 158.782Z" fill="#F0F0F0"/>
<path d="M190.906 177.827L156.087 178.247L156.13 181.816L190.949 181.397L190.906 177.827Z" fill="#EBEBEB"/>
<path d="M191.02 187.317L156.202 187.736L156.245 191.306L191.063 190.887L191.02 187.317Z" fill="#EBEBEB"/>
<path d="M191.134 196.807L156.316 197.226L156.359 200.796L191.177 200.377L191.134 196.807Z" fill="#EBEBEB"/>
<path d="M414.101 251.068L153.947 254.2L153.981 256.98L414.135 253.848L414.101 251.068Z" fill="#EBEBEB"/>
<path d="M414.125 253.848L435.191 253.595L435.158 250.815L414.091 251.068L414.125 253.848Z" fill="#E0E0E0"/>
<path d="M414.125 253.848L157.543 256.937L159.104 386.552L415.685 383.463L414.125 253.848Z" fill="#F5F5F5"/>
<path d="M215.095 256.244L213.658 256.262L215.218 385.876L216.655 385.859L215.095 256.244Z" fill="#E6E6E6"/>
<path d="M283.272 281.786L281.835 281.804L283.079 385.059L284.516 385.042L283.272 281.786Z" fill="#E6E6E6"/>
<path d="M215.628 360.229L215.611 358.789L158.788 359.473L158.805 360.913L215.628 360.229Z" fill="#E6E6E6"/>
<path d="M215.32 334.59L215.302 333.15L158.479 333.834L158.497 335.274L215.32 334.59Z" fill="#E6E6E6"/>
<path d="M215.011 308.951L214.994 307.511L158.171 308.195L158.188 309.635L215.011 308.951Z" fill="#E6E6E6"/>
<path d="M414.461 280.927L414.444 279.487L157.862 282.576L157.88 284.016L414.461 280.927Z" fill="#E6E6E6"/>
<path d="M415.695 383.463L434.127 383.241L432.567 253.626L414.135 253.848L415.695 383.463Z" fill="#EBEBEB"/>
<path d="M416.347 77.7334L325.534 78.8267L327.094 208.401L417.907 207.308L416.347 77.7334Z" fill="#FAFAFA"/>
<path d="M417.363 79.2812L324.554 80.3985C324.351 80.401 324.148 80.363 323.959 80.2868C323.77 80.2105 323.597 80.0975 323.452 79.9542C323.306 79.811 323.19 79.6403 323.111 79.452C323.032 79.2638 322.99 79.0616 322.989 78.8572C322.985 78.6533 323.022 78.4507 323.097 78.2611C323.172 78.0716 323.284 77.8988 323.426 77.7529C323.568 77.6069 323.738 77.4908 323.925 77.4111C324.112 77.3314 324.314 77.2898 324.517 77.2887L417.326 76.1714C417.53 76.1676 417.733 76.2043 417.922 76.2793C418.112 76.3543 418.285 76.4662 418.432 76.6085C418.578 76.7509 418.695 76.9208 418.775 77.1085C418.856 77.2963 418.899 77.4982 418.901 77.7026C418.906 78.1163 418.747 78.515 418.459 78.8111C418.17 79.1072 417.776 79.2763 417.363 79.2812Z" fill="#EBEBEB"/>
<path d="M418.923 208.856L326.115 209.973C325.911 209.976 325.708 209.938 325.519 209.861C325.33 209.785 325.157 209.672 325.012 209.529C324.866 209.386 324.75 209.215 324.671 209.027C324.592 208.838 324.55 208.636 324.549 208.432C324.545 208.228 324.582 208.025 324.657 207.836C324.732 207.646 324.844 207.473 324.986 207.328C325.128 207.182 325.298 207.065 325.485 206.986C325.672 206.906 325.874 206.864 326.077 206.863L418.886 205.746C419.09 205.742 419.293 205.779 419.482 205.854C419.672 205.929 419.845 206.041 419.992 206.183C420.138 206.326 420.255 206.495 420.336 206.683C420.416 206.871 420.459 207.073 420.461 207.277C420.466 207.691 420.307 208.09 420.019 208.386C419.73 208.682 419.336 208.851 418.923 208.856Z" fill="#EBEBEB"/>
<path d="M374.728 110.238L367.922 110.32C362.086 110.39 357.411 115.188 357.481 121.036L357.738 142.356C357.809 148.204 362.597 152.888 368.434 152.818L375.24 152.736C381.077 152.666 385.751 147.868 385.681 142.019L385.424 120.7C385.354 114.852 380.565 110.167 374.728 110.238Z" fill="#F0F0F0"/>
<path d="M364.373 196.041C362.785 196.06 361.255 195.447 360.118 194.335C358.982 193.223 358.332 191.705 358.313 190.114L357.768 144.786C357.748 143.194 358.361 141.661 359.47 140.522C360.58 139.383 362.095 138.733 363.683 138.714C365.271 138.695 366.802 139.308 367.938 140.42C369.075 141.532 369.724 143.05 369.743 144.641L370.289 189.969C370.308 191.561 369.695 193.094 368.586 194.233C367.477 195.372 365.961 196.022 364.373 196.041Z" fill="#F0F0F0"/>
<path d="M351.728 115.665L351.718 115.665C349.745 115.689 348.164 117.311 348.188 119.288L348.514 146.367C348.538 148.344 350.157 149.928 352.13 149.904L352.14 149.904C354.113 149.88 355.693 148.258 355.669 146.281L355.343 119.202C355.32 117.225 353.701 115.641 351.728 115.665Z" fill="#F0F0F0"/>
<path d="M391.469 149.44C390.521 149.446 389.609 149.077 388.932 148.413C388.255 147.749 387.867 146.843 387.853 145.893L387.527 118.825C387.518 117.875 387.884 116.96 388.545 116.28C389.206 115.6 390.109 115.208 391.057 115.192C392.005 115.186 392.918 115.555 393.597 116.219C394.276 116.883 394.666 117.788 394.682 118.738L395.008 145.807C395.014 146.758 394.646 147.672 393.984 148.353C393.321 149.033 392.417 149.424 391.469 149.44Z" fill="#F0F0F0"/>
<path d="M380.34 195.849C378.752 195.868 377.221 195.254 376.085 194.143C374.948 193.031 374.299 191.513 374.28 189.921L373.734 144.593C373.715 143.002 374.328 141.468 375.437 140.33C376.546 139.191 378.062 138.541 379.65 138.521C381.238 138.502 382.768 139.116 383.905 140.228C385.041 141.339 385.691 142.858 385.71 144.449L386.255 189.777C386.275 191.368 385.662 192.902 384.553 194.041C383.443 195.179 381.928 195.83 380.34 195.849Z" fill="#F0F0F0"/>
<path d="M377.478 103.621C380.878 100.132 380.811 94.5409 377.328 91.1341C373.845 87.7274 368.266 87.7945 364.866 91.2842C361.466 94.7738 361.534 100.364 365.017 103.771C368.499 107.178 374.079 107.111 377.478 103.621Z" fill="#F0F0F0"/>
<path d="M383.09 226.109L341.286 226.612L341.591 251.941L383.395 251.438L383.09 226.109Z" fill="#F5F5F5"/>
<path d="M383.395 251.438L393.693 251.314L393.388 225.985L383.09 226.109L383.395 251.438Z" fill="#EBEBEB"/>
<path d="M370.3 236.504L364.721 236.571L364.654 230.992L359.834 231.05L359.901 236.629L354.333 236.696L354.391 241.536L359.96 241.469L360.027 247.049L364.847 246.991L364.78 241.411L370.358 241.344L370.3 236.504Z" fill="white"/>
<path d="M304.986 252.382L300.994 252.43L300.455 207.622C300.431 205.638 300.017 203.678 299.237 201.854C298.458 200.029 297.327 198.377 295.91 196.991C294.493 195.605 292.817 194.512 290.978 193.775C289.14 193.037 287.174 192.67 285.194 192.694C283.214 192.718 281.258 193.132 279.437 193.914C277.617 194.695 275.968 195.828 274.585 197.248C273.202 198.668 272.111 200.347 271.375 202.189C270.64 204.031 270.273 206.001 270.297 207.985L266.305 208.033C266.244 202.965 268.195 198.08 271.728 194.453C275.262 190.827 280.088 188.755 285.146 188.694C290.204 188.633 295.079 190.588 298.698 194.129C302.318 197.669 304.386 202.506 304.447 207.574L304.986 252.382Z" fill="#EBEBEB"/>
<path d="M312.342 245.733L308.35 245.781L308.429 252.34L312.421 252.292L312.342 245.733Z" fill="#EBEBEB"/>
<path d="M185.444 251.491L181.453 251.539L181.481 253.869L185.472 253.821L185.444 251.491Z" fill="#EBEBEB"/>
<path d="M178.369 251.576L174.377 251.624L174.405 253.954L178.397 253.906L178.369 251.576Z" fill="#EBEBEB"/>
<path d="M141.259 313.629L89.2957 314.255L90.176 387.382L142.139 386.756L141.259 313.629Z" fill="#F5F5F5"/>
<path d="M139.211 311.824L91.2893 312.401L91.3115 314.24L139.233 313.664L139.211 311.824Z" fill="#E6E6E6"/>
<path d="M105.531 295.727L124.572 295.498C128.939 295.446 133.148 297.133 136.273 300.19C139.399 303.247 141.184 307.423 141.237 311.799L89.2736 312.425C89.2462 310.258 89.6451 308.108 90.4474 306.096C91.2497 304.085 92.4397 302.251 93.9495 300.701C95.4593 299.15 97.2592 297.913 99.2464 297.059C101.234 296.206 103.369 295.753 105.531 295.727Z" fill="#F5F5F5"/>
<path d="M96.9852 379.279L91.4865 379.345C89.3691 379.371 87.3486 380.238 85.8695 381.756C84.3903 383.274 83.5737 385.319 83.5992 387.441L105.115 387.182C105.102 386.127 104.882 385.085 104.465 384.116C104.049 383.147 103.446 382.27 102.691 381.536C101.935 380.801 101.042 380.224 100.063 379.836C99.0836 379.449 98.0377 379.26 96.9852 379.279Z" fill="#E6E6E6"/>
<path d="M254.642 430.566C361.504 429.28 448.072 423.169 447.997 416.918C447.922 410.666 361.232 406.641 254.369 407.927C147.507 409.214 60.9389 415.325 61.0142 421.576C61.0895 427.828 147.78 431.853 254.642 430.566Z" fill="#F5F5F5"/>
<path d="M193.084 149.848L188.487 144.343L182.208 148.419C182.208 148.419 185.139 151.484 188.704 155.772L193.084 149.848Z" fill="#B55B52"/>
<path d="M249.583 149.618C249.33 150.181 249.155 150.524 248.94 150.956L248.326 152.164C247.906 152.959 247.497 153.744 247.057 154.519C246.197 156.063 245.294 157.581 244.347 159.072C242.444 162.126 240.338 165.048 238.045 167.819C235.614 170.776 232.868 173.458 229.857 175.818C228.19 177.084 226.413 178.197 224.547 179.143L223.048 179.831L221.469 180.44C220.942 180.636 220.375 180.783 219.818 180.95L219.4 181.075L218.803 181.212C218.365 181.307 217.937 181.372 217.518 181.428C215.993 181.596 214.451 181.534 212.945 181.243C211.71 181.015 210.499 180.671 209.329 180.216C207.377 179.442 205.507 178.477 203.745 177.333C200.696 175.326 197.821 173.065 195.15 170.576C192.556 168.217 190.152 165.775 187.846 163.283C186.693 162.027 185.55 160.78 184.437 159.493C183.323 158.207 182.261 156.969 181.105 155.533L192.039 146.821C192.911 147.9 193.954 149.138 194.956 150.276C195.957 151.414 196.979 152.582 198.051 153.699C200.174 155.924 202.345 158.068 204.575 160.031C206.676 161.918 208.937 163.617 211.333 165.11C212.286 165.705 213.295 166.206 214.345 166.604C215.208 166.924 215.846 166.906 215.656 166.858L215.556 166.86L215.725 166.808C215.944 166.715 216.153 166.662 216.381 166.57L217.046 166.272L217.74 165.913C218.731 165.347 219.672 164.697 220.552 163.969C222.571 162.244 224.386 160.293 225.961 158.153C227.684 155.849 229.246 153.428 230.635 150.906C231.351 149.618 232.024 148.309 232.654 146.982C232.975 146.328 233.286 145.664 233.627 144.97L234.055 143.965C234.181 143.663 234.346 143.271 234.413 143.09L249.583 149.618Z" fill="#3638DA"/>
<path opacity="0.8" d="M249.583 149.618C249.33 150.181 249.155 150.524 248.94 150.956L248.326 152.164C247.906 152.959 247.497 153.744 247.057 154.519C246.197 156.063 245.294 157.581 244.347 159.072C242.444 162.126 240.338 165.048 238.045 167.819C235.614 170.776 232.868 173.458 229.857 175.818C228.19 177.084 226.413 178.197 224.547 179.143L223.048 179.831L221.469 180.44C220.942 180.636 220.375 180.783 219.818 180.95L219.4 181.075L218.803 181.212C218.365 181.307 217.937 181.372 217.518 181.428C215.993 181.596 214.451 181.534 212.945 181.243C211.71 181.015 210.499 180.671 209.329 180.216C207.377 179.442 205.507 178.477 203.745 177.333C200.696 175.326 197.821 173.065 195.15 170.576C192.556 168.217 190.152 165.775 187.846 163.283C186.693 162.027 185.55 160.78 184.437 159.493C183.323 158.207 182.261 156.969 181.105 155.533L192.039 146.821C192.911 147.9 193.954 149.138 194.956 150.276C195.957 151.414 196.979 152.582 198.051 153.699C200.174 155.924 202.345 158.068 204.575 160.031C206.676 161.918 208.937 163.617 211.333 165.11C212.286 165.705 213.295 166.206 214.345 166.604C215.208 166.924 215.846 166.906 215.656 166.858L215.556 166.86L215.725 166.808C215.944 166.715 216.153 166.662 216.381 166.57L217.046 166.272L217.74 165.913C218.731 165.347 219.672 164.697 220.552 163.969C222.571 162.244 224.386 160.293 225.961 158.153C227.684 155.849 229.246 153.428 230.635 150.906C231.351 149.618 232.024 148.309 232.654 146.982C232.975 146.328 233.286 145.664 233.627 144.97L234.055 143.965C234.181 143.663 234.346 143.271 234.413 143.09L249.583 149.618Z" fill="white"/>
<path d="M249.292 309.458L281.505 309.071L268.554 248.04L252.776 248.23L249.292 309.458Z" fill="#3638DA"/>
<path opacity="0.6" d="M249.292 309.458L281.505 309.071L268.554 248.04L252.776 248.23L249.292 309.458Z" fill="white"/>
<path d="M257.409 410.071L249.196 410.17L248.618 391.125L256.831 391.026L257.409 410.071Z" fill="#B55B52"/>
<path d="M302.886 409.524L294.673 409.622L290.781 390.617L298.994 390.518L302.886 409.524Z" fill="#B55B52"/>
<path d="M294.103 408.679L303.284 408.569C303.445 408.566 303.603 408.619 303.73 408.72C303.857 408.82 303.945 408.962 303.979 409.12L305.504 416.413C305.539 416.593 305.533 416.778 305.488 416.955C305.442 417.133 305.358 417.298 305.242 417.439C305.125 417.58 304.979 417.693 304.813 417.771C304.648 417.848 304.467 417.888 304.284 417.888C301.07 417.876 299.511 417.705 295.45 417.754C292.955 417.784 287.808 418.106 284.365 418.147C280.923 418.189 280.512 414.783 281.926 414.456C288.266 412.99 290.678 411.051 292.721 409.196C293.105 408.863 293.595 408.679 294.103 408.679Z" fill="#263238"/>
<path d="M249.265 409.219L258.246 409.111C258.407 409.108 258.563 409.162 258.688 409.263C258.813 409.364 258.899 409.505 258.932 409.663L260.466 416.935C260.502 417.114 260.498 417.298 260.455 417.476C260.411 417.653 260.329 417.818 260.215 417.96C260.1 418.102 259.956 418.217 259.792 418.296C259.628 418.375 259.449 418.418 259.267 418.42C256.032 418.398 251.36 418.265 247.288 418.314C242.538 418.371 242.152 418.636 236.583 418.703C233.21 418.743 232.321 415.344 233.734 415.017C240.174 413.529 241.699 413.361 247.286 409.853C247.876 409.465 248.56 409.246 249.265 409.219Z" fill="#263238"/>
<path d="M185.4 142.48L180.09 142.464L179.174 149.336C182.562 149.914 186.044 149.526 189.222 148.215L189.105 145.986C189.053 145.037 188.639 144.145 187.95 143.493C187.261 142.841 186.348 142.478 185.4 142.48Z" fill="#B55B52"/>
<path d="M171.791 142.884L172.871 147.201L179.155 149.336L180.09 142.464L171.791 142.884Z" fill="#B55B52"/>
<path opacity="0.2" d="M248.618 391.135L248.916 400.952L257.129 400.853L256.831 391.036L248.618 391.135Z" fill="black"/>
<path opacity="0.2" d="M298.994 390.528L290.781 390.627L292.796 400.424L301.009 400.325L298.994 390.528Z" fill="black"/>
<path d="M235.959 144.672C233.789 153.419 229.972 175.467 234.854 210.402L278.764 209.873C279.119 203.738 275.991 176.043 280.583 147.115C280.777 145.937 280.728 144.732 280.439 143.574C280.151 142.416 279.628 141.329 278.904 140.381C278.18 139.433 277.27 138.644 276.23 138.062C275.19 137.48 274.042 137.117 272.856 136.997C271.147 136.827 269.339 136.689 267.552 136.621C261.413 136.524 255.273 136.798 249.167 137.442C246.563 137.723 243.987 138.229 241.47 138.955C240.13 139.337 238.915 140.067 237.947 141.07C236.979 142.074 236.294 143.317 235.959 144.672Z" fill="white"/>
<path d="M265.326 119.156C264.071 125.171 263.392 132.65 267.532 136.621C267.532 136.621 265.041 142.751 253.884 142.886C243.685 143.009 248.821 136.846 248.821 136.846C255.537 135.165 255.298 126.867 254.184 122.2L265.326 119.156Z" fill="#B55B52"/>
<path d="M253.365 142.062L250.982 144.761C250.898 144.854 250.84 144.969 250.815 145.092C250.79 145.216 250.799 145.344 250.841 145.463L251.638 147.813C251.682 147.945 251.766 148.06 251.877 148.143C251.989 148.226 252.123 148.272 252.262 148.276L254.868 148.375C254.992 148.378 255.114 148.35 255.224 148.293C255.333 148.235 255.426 148.151 255.493 148.047L257.022 145.738C257.115 145.614 257.164 145.462 257.162 145.307C257.16 145.151 257.107 145.001 257.012 144.878L254.463 142.039C254.395 141.957 254.311 141.891 254.215 141.847C254.119 141.803 254.014 141.781 253.908 141.783C253.802 141.786 253.699 141.812 253.605 141.86C253.51 141.908 253.429 141.977 253.365 142.062Z" fill="#3638DA"/>
<path d="M252.83 148.249C252.83 148.249 249.193 177.736 249.165 182.867C249.276 187.711 250.093 192.512 251.592 197.119C251.592 197.119 254.274 191.886 254.631 182.581C254.988 173.276 254.18 153.453 254.327 148.231L252.83 148.249Z" fill="#3638DA"/>
<path opacity="0.2" d="M254.244 122.209C254.905 124.942 255.252 128.918 254.073 132.092C254.876 132.433 258.154 131.123 259.51 130.237C262.531 128.26 263.685 126.346 264.754 122.283C264.921 121.211 265.108 120.168 265.325 119.156L254.244 122.209Z" fill="black"/>
<path d="M243.755 116.485C244.133 117.416 244.694 118.262 245.404 118.973C246.113 119.684 246.957 120.246 247.887 120.626C250.384 121.596 251.964 119.396 251.534 116.851C251.157 114.566 249.391 111.287 246.757 111.388C246.177 111.428 245.616 111.609 245.121 111.915C244.626 112.221 244.213 112.643 243.917 113.145C243.622 113.646 243.452 114.213 243.424 114.795C243.396 115.377 243.509 115.957 243.755 116.485Z" fill="#B55B52"/>
<path opacity="0.2" d="M243.755 116.485C244.133 117.416 244.694 118.262 245.404 118.973C246.113 119.684 246.957 120.246 247.887 120.626C250.384 121.596 251.964 119.396 251.534 116.851C251.157 114.566 249.391 111.287 246.757 111.388C246.177 111.428 245.616 111.609 245.121 111.915C244.626 112.221 244.213 112.643 243.917 113.145C243.622 113.646 243.452 114.213 243.424 114.795C243.396 115.377 243.509 115.957 243.755 116.485Z" fill="black"/>
<path d="M253.745 107.354C253.318 110.879 251.155 113.526 248.916 113.253C246.677 112.979 245.212 109.897 245.649 106.361C246.085 102.826 248.239 100.179 250.478 100.452C252.717 100.726 254.202 103.818 253.745 107.354Z" fill="#263238"/>
<path d="M269.164 111.309C267.264 119.332 266.543 124.102 261.785 127.619C254.642 132.916 245.446 127.666 244.966 119.291C244.526 111.755 247.727 99.9155 256.087 97.9147C257.92 97.4665 259.838 97.5041 261.652 98.0239C263.466 98.5437 265.114 99.5277 266.433 100.879C267.753 102.231 268.698 103.903 269.177 105.732C269.656 107.56 269.651 109.482 269.164 111.309Z" fill="#B55B52"/>
<path d="M255.714 95.1288C250.946 96.1863 245.704 100.16 250.299 102.955C254.894 105.75 265.168 106.066 265.168 106.066C265.168 106.066 261.871 114.107 266.561 118.181C268.099 117.392 264.88 124.411 264.88 124.411C266.572 123.804 267.98 122.59 268.831 121.004C271.597 120.26 279.64 106.872 274.126 103.178C272.995 95.4408 262.114 93.6616 255.714 95.1288Z" fill="#263238"/>
<path d="M267.505 116.149L267.395 116.15L260.17 112.937C260.135 112.927 260.101 112.91 260.073 112.886C260.044 112.862 260.021 112.832 260.005 112.799C259.989 112.765 259.98 112.729 259.979 112.691C259.978 112.654 259.986 112.617 260.001 112.583C260.015 112.549 260.037 112.518 260.065 112.493C260.092 112.468 260.125 112.45 260.16 112.438C260.196 112.427 260.233 112.424 260.27 112.428C260.307 112.433 260.343 112.445 260.374 112.465L267.609 115.678C267.671 115.705 267.72 115.756 267.745 115.82C267.77 115.883 267.769 115.953 267.743 116.016C267.72 116.058 267.685 116.093 267.643 116.116C267.601 116.14 267.553 116.151 267.505 116.149Z" fill="white"/>
<path d="M271.204 120.775C269.842 122.323 267.93 123.276 265.876 123.429C263.173 123.602 262.444 121.02 263.714 118.745C264.857 116.731 267.651 114.137 270.097 115.038C272.543 115.938 272.848 118.865 271.204 120.775Z" fill="#B55B52"/>
<path d="M234.854 210.402C234.854 210.402 232.96 271.931 233.542 297.017C234.145 323.102 245.889 399.079 245.889 399.079L259.79 398.911C259.79 398.911 257.645 324.339 258.584 298.705C259.605 270.75 263.725 210.054 263.725 210.054L234.854 210.402Z" fill="#3638DA"/>
<path d="M260.365 392.754C260.435 392.753 260.702 399.19 260.702 399.19L244.675 399.383L243.673 392.395L260.365 392.754Z" fill="#263238"/>
<path opacity="0.2" d="M253.862 226.455C253.75 256.979 255.351 275.502 258.933 290.4C259.596 275.831 260.732 256.565 261.747 240.561L253.862 226.455Z" fill="black"/>
<path d="M250.432 210.214C250.432 210.214 258.973 272.978 263.787 296.472C269.087 322.201 288.97 398.56 288.97 398.56L304.009 398.379C304.009 398.379 291.247 324.025 288.365 298.557C285.247 270.881 278.744 209.913 278.744 209.913L250.432 210.214Z" fill="#3638DA"/>
<path d="M303.58 392.573C303.65 392.573 304.771 398.66 304.771 398.66L288.245 398.859L286.348 392.161L303.58 392.573Z" fill="#263238"/>
<path d="M256.682 111.669C256.56 112.33 256.127 112.806 255.697 112.741C255.267 112.676 255.02 112.089 255.132 111.427C255.244 110.766 255.687 110.291 256.117 110.355C256.547 110.42 256.784 111.008 256.682 111.669Z" fill="#263238"/>
<path d="M248.605 109.866C248.493 110.527 248.05 111.003 247.62 110.938C247.19 110.873 246.944 110.286 247.055 109.624C247.167 108.963 247.611 108.488 248.041 108.553C248.47 108.617 248.717 109.204 248.605 109.866Z" fill="#263238"/>
<path d="M251.978 111.475C250.633 113.22 249.061 114.776 247.303 116.102C247.644 116.536 248.076 116.889 248.569 117.135C249.063 117.382 249.604 117.516 250.155 117.528L251.978 111.475Z" fill="#A02724"/>
<path d="M252.096 119.555C252.046 119.544 252.002 119.514 251.974 119.471C251.946 119.429 251.935 119.377 251.943 119.327C251.952 119.275 251.981 119.229 252.024 119.199C252.066 119.168 252.119 119.156 252.171 119.164C252.983 119.303 253.816 119.251 254.605 119.013C255.393 118.774 256.116 118.355 256.715 117.789C256.749 117.752 256.797 117.729 256.847 117.727C256.898 117.724 256.947 117.742 256.985 117.776C257.022 117.81 257.045 117.857 257.047 117.908C257.05 117.959 257.032 118.008 256.998 118.046C256.359 118.669 255.581 119.131 254.729 119.393C253.876 119.656 252.974 119.711 252.096 119.555Z" fill="#263238"/>
<path d="M260.558 109.482C260.499 109.469 260.444 109.441 260.399 109.401C260.353 109.362 260.318 109.312 260.296 109.255C260.132 108.805 259.864 108.401 259.513 108.077C259.161 107.752 258.738 107.516 258.277 107.389C258.177 107.369 258.088 107.309 258.031 107.224C257.974 107.138 257.953 107.034 257.972 106.933C257.993 106.831 258.052 106.742 258.136 106.683C258.221 106.624 258.326 106.601 258.428 106.617C259.025 106.757 259.578 107.042 260.037 107.449C260.497 107.855 260.848 108.37 261.061 108.946C261.095 109.044 261.091 109.151 261.05 109.246C261.008 109.342 260.932 109.417 260.837 109.459C260.75 109.5 260.651 109.508 260.558 109.482Z" fill="#263238"/>
<path d="M246.502 106.741C246.446 106.729 246.393 106.702 246.351 106.663C246.28 106.589 246.24 106.491 246.239 106.389C246.238 106.287 246.275 106.188 246.345 106.113C246.725 105.621 247.215 105.225 247.775 104.956C248.334 104.687 248.949 104.553 249.57 104.564C249.62 104.569 249.668 104.585 249.712 104.609C249.756 104.634 249.795 104.667 249.826 104.706C249.857 104.746 249.88 104.792 249.894 104.84C249.907 104.889 249.911 104.94 249.904 104.99C249.9 105.041 249.886 105.091 249.862 105.137C249.838 105.183 249.805 105.223 249.766 105.256C249.726 105.289 249.681 105.314 249.632 105.329C249.582 105.344 249.531 105.35 249.48 105.345C248.988 105.34 248.503 105.452 248.064 105.671C247.624 105.89 247.242 106.21 246.95 106.605C246.898 106.671 246.827 106.719 246.747 106.743C246.667 106.768 246.582 106.767 246.502 106.741Z" fill="#263238"/>
<path d="M256.588 116.351C256.391 116.351 256.194 116.336 255.999 116.308C255.53 116.224 255.083 116.048 254.682 115.791C254.282 115.533 253.936 115.198 253.665 114.806C253.319 114.301 253.075 113.733 252.948 113.134C252.821 112.535 252.813 111.916 252.925 111.314C253.047 110.219 253.592 109.214 254.443 108.516C255.295 107.818 256.385 107.482 257.481 107.579C258.426 107.751 259.266 108.291 259.815 109.081C260.51 110.102 260.776 111.356 260.555 112.572C260.431 113.564 259.968 114.482 259.245 115.171C258.522 115.86 257.583 116.276 256.588 116.351ZM256.888 108.056C256.016 108.128 255.196 108.501 254.566 109.11C253.937 109.719 253.537 110.527 253.435 111.398C253.234 112.48 253.466 113.598 254.081 114.51C254.315 114.847 254.613 115.134 254.959 115.355C255.304 115.576 255.689 115.726 256.093 115.796C257.052 115.872 258.003 115.568 258.742 114.95C259.481 114.332 259.949 113.448 260.045 112.488C260.243 111.405 260.008 110.287 259.389 109.376C259.156 109.039 258.858 108.751 258.512 108.53C258.167 108.309 257.781 108.16 257.377 108.09C257.215 108.065 257.052 108.054 256.888 108.056Z" fill="white"/>
<path d="M253.178 111.611C253.136 111.611 253.096 111.601 253.059 111.583C253.023 111.564 252.991 111.537 252.967 111.504C252.801 111.178 252.521 110.924 252.182 110.79C251.842 110.656 251.465 110.651 251.121 110.776C251.058 110.8 250.988 110.8 250.924 110.775C250.861 110.75 250.81 110.701 250.78 110.64C250.753 110.578 250.75 110.507 250.774 110.443C250.797 110.379 250.845 110.327 250.906 110.298C251.361 110.13 251.861 110.129 252.316 110.296C252.771 110.463 253.153 110.786 253.392 111.208C253.411 111.237 253.424 111.269 253.43 111.303C253.437 111.336 253.436 111.371 253.429 111.405C253.422 111.438 253.409 111.47 253.39 111.498C253.37 111.527 253.346 111.551 253.317 111.569C253.276 111.598 253.227 111.613 253.178 111.611Z" fill="white"/>
<path d="M247.312 114.352C247.112 114.353 246.911 114.339 246.713 114.309C246.244 114.226 245.797 114.05 245.396 113.792C244.995 113.534 244.65 113.2 244.379 112.807C243.684 111.786 243.418 110.532 243.639 109.316C243.761 108.221 244.306 107.218 245.158 106.521C246.01 105.825 247.1 105.491 248.195 105.59C248.664 105.67 249.112 105.843 249.513 106.099C249.913 106.356 250.259 106.69 250.528 107.083C251.225 108.107 251.491 109.365 251.269 110.584C251.145 111.573 250.683 112.489 249.962 113.175C249.241 113.862 248.304 114.278 247.312 114.352ZM247.602 106.058C246.73 106.13 245.91 106.502 245.28 107.111C244.651 107.72 244.251 108.529 244.149 109.4C244.048 109.936 244.055 110.487 244.167 111.021C244.28 111.555 244.497 112.062 244.805 112.512C245.038 112.849 245.336 113.137 245.682 113.358C246.027 113.579 246.413 113.728 246.817 113.798C247.776 113.873 248.727 113.57 249.466 112.951C250.205 112.333 250.672 111.45 250.769 110.49C250.97 109.406 250.734 108.287 250.113 107.378C249.638 106.699 248.915 106.237 248.101 106.092C247.936 106.066 247.769 106.055 247.602 106.058Z" fill="white"/>
<path d="M291.326 410.143C290.773 410.193 290.219 410.056 289.754 409.752C289.614 409.629 289.506 409.474 289.438 409.301C289.37 409.128 289.344 408.941 289.363 408.756C289.366 408.641 289.4 408.528 289.46 408.429C289.52 408.33 289.604 408.248 289.705 408.192C290.608 407.721 293.242 409.32 293.544 409.496C293.577 409.516 293.603 409.546 293.618 409.582C293.633 409.618 293.635 409.657 293.626 409.695C293.621 409.734 293.604 409.77 293.578 409.799C293.551 409.828 293.516 409.848 293.478 409.857C292.774 410.033 292.052 410.129 291.326 410.143ZM290.128 408.457C290.042 408.457 289.957 408.475 289.879 408.51C289.838 408.533 289.805 408.567 289.782 408.608C289.76 408.649 289.749 408.695 289.752 408.742C289.733 408.872 289.746 409.004 289.791 409.128C289.836 409.251 289.911 409.361 290.01 409.449C290.453 409.823 291.522 409.86 292.926 409.563C292.086 409.019 291.15 408.643 290.167 408.457L290.128 408.457Z" fill="#3638DA"/>
<path d="M293.478 409.837C293.449 409.847 293.417 409.847 293.388 409.838C292.544 409.388 290.916 407.607 291.104 406.685C291.136 406.542 291.214 406.413 291.327 406.319C291.44 406.225 291.58 406.172 291.727 406.167C291.874 406.147 292.025 406.157 292.168 406.198C292.311 406.24 292.444 406.311 292.558 406.408C293.496 407.176 293.664 409.545 293.675 409.654C293.67 409.707 293.648 409.755 293.612 409.794C293.577 409.832 293.53 409.858 293.478 409.867L293.478 409.837ZM291.861 406.556L291.771 406.557C291.522 406.56 291.494 406.7 291.484 406.75C291.381 407.292 292.405 408.65 293.241 409.28C293.195 408.348 292.868 407.452 292.302 406.711C292.179 406.608 292.022 406.553 291.861 406.556Z" fill="#3638DA"/>
<path d="M245.839 410.7C245.136 410.776 244.428 410.604 243.837 410.214C243.704 410.099 243.602 409.952 243.541 409.787C243.48 409.621 243.461 409.443 243.486 409.269C243.492 409.162 243.524 409.059 243.581 408.969C243.637 408.879 243.716 408.805 243.81 408.755C244.801 408.173 248.094 409.813 248.466 410.009C248.503 410.026 248.534 410.055 248.553 410.091C248.572 410.128 248.579 410.169 248.573 410.21C248.567 410.251 248.548 410.288 248.518 410.317C248.489 410.346 248.451 410.364 248.41 410.369C247.565 410.559 246.705 410.67 245.839 410.7ZM244.401 409.008C244.275 409.007 244.15 409.033 244.033 409.082C243.997 409.104 243.967 409.135 243.946 409.172C243.925 409.209 243.915 409.251 243.916 409.293C243.897 409.409 243.908 409.527 243.947 409.637C243.987 409.747 244.054 409.845 244.143 409.921C244.637 410.365 245.986 410.429 247.808 410.097C246.742 409.543 245.59 409.174 244.401 409.008Z" fill="#3638DA"/>
<path d="M248.41 410.379L248.33 410.38C247.327 409.942 245.41 408.195 245.568 407.253C245.566 407.043 245.762 406.761 246.3 406.704C246.491 406.679 246.685 406.694 246.87 406.748C247.054 406.803 247.226 406.896 247.372 407.022C248.38 407.869 248.596 410.087 248.608 410.177C248.609 410.211 248.602 410.245 248.589 410.276C248.576 410.307 248.555 410.335 248.53 410.358C248.492 410.374 248.451 410.381 248.41 410.379ZM246.425 407.103L246.305 407.104C245.956 407.109 245.928 407.279 245.918 407.329C245.825 407.88 247.139 409.265 248.145 409.862C248.071 408.934 247.712 408.05 247.116 407.335C246.923 407.173 246.676 407.09 246.425 407.103Z" fill="#3638DA"/>
<path d="M268.064 136.064L277.559 137.09C279.133 137.258 280.587 138.013 281.633 139.204C282.679 140.395 283.24 141.937 283.205 143.523C282.905 158.338 281.194 178.711 283.135 209.821C284.112 225.51 296.086 310.625 296.086 310.625L274.566 314.675C263.874 282.04 256.252 248.475 251.801 214.418C250.054 199.615 249.821 184.672 251.104 169.822L268.064 136.064Z" fill="#3638DA"/>
<path opacity="0.8" d="M268.064 136.064L277.559 137.09C279.133 137.258 280.587 138.013 281.633 139.204C282.679 140.395 283.24 141.937 283.205 143.523C282.905 158.338 281.194 178.711 283.135 209.821C284.112 225.51 296.086 310.625 296.086 310.625L274.566 314.675C263.874 282.04 256.252 248.475 251.801 214.418C250.054 199.615 249.821 184.672 251.104 169.822L268.064 136.064Z" fill="white"/>
<path opacity="0.2" d="M276.036 154.87C276.062 157.09 277.895 168.369 282.19 176.118C282.246 170.797 282.377 165.935 282.543 161.473L276.036 154.87Z" fill="#3638DA"/>
<path opacity="0.2" d="M235.206 153.382C234.017 155.726 230.623 165.648 228.966 176.459C229.778 175.879 230.549 175.28 231.29 174.671C234.022 172.342 236.524 169.757 238.763 166.95L239.195 166.405L235.206 153.382Z" fill="#3638DA"/>
<path d="M248.047 137.275L242.457 138.023C239.778 138.386 237.315 139.693 235.51 141.711C233.705 143.728 232.677 146.324 232.609 149.032C232.17 165.659 231.272 198.874 230.703 210.452C229.894 226.153 231.629 311.401 231.629 311.401L245.1 313.599C245.1 313.599 247.948 266.62 251.841 214.418C252.814 198.926 252.903 183.392 252.109 167.89L248.047 137.275Z" fill="#3638DA"/>
<path opacity="0.8" d="M248.047 137.275L242.457 138.023C239.778 138.386 237.315 139.693 235.51 141.711C233.705 143.728 232.677 146.324 232.609 149.032C232.17 165.659 231.272 198.874 230.703 210.452C229.894 226.153 231.629 311.401 231.629 311.401L245.1 313.599C245.1 313.599 247.948 266.62 251.841 214.418C252.814 198.926 252.903 183.392 252.109 167.89L248.047 137.275Z" fill="white"/>
<path d="M253.891 141.816C255.166 143.812 256.197 145.956 256.962 148.199C256.962 148.199 270.01 143.532 269.454 136.308C269.454 136.308 267.444 135.152 266.235 134.206C266.225 134.206 265.691 138.773 253.891 141.816Z" fill="#F5F5F5"/>
<path d="M253.891 141.816C252.418 143.563 251.189 145.502 250.237 147.58C248.611 146.386 247.404 144.707 246.787 142.783C246.171 140.86 246.177 138.79 246.804 136.87C247.968 136.383 249.168 135.988 250.393 135.687C250.393 135.687 249.501 140.318 253.891 141.816Z" fill="#F5F5F5"/>
<path opacity="0.2" d="M268.378 214.369L283.553 227.117L273.233 222.211L268.378 214.369Z" fill="#3638DA"/>
<path d="M282.574 140.82C283.223 141.702 283.711 142.397 284.259 143.18L285.814 145.472C286.83 147.006 287.817 148.558 288.774 150.126C290.699 153.274 292.514 156.492 294.191 159.862C295.924 163.309 297.405 166.878 298.622 170.54C299.27 172.497 299.787 174.496 300.171 176.522C300.577 178.716 300.774 180.944 300.76 183.176C300.625 187.388 299.864 191.556 298.503 195.544C297.272 199.214 295.739 202.774 293.921 206.19C292.19 209.493 290.28 212.698 288.197 215.79C287.178 217.329 286.125 218.842 285.038 220.329C284.498 221.075 283.938 221.822 283.368 222.559C282.798 223.296 282.258 223.983 281.549 224.831L270.89 215.789C271.284 215.304 271.874 214.617 272.306 213.991L273.76 212.054C274.742 210.742 275.644 209.411 276.536 208.02C278.296 205.332 279.905 202.548 281.356 199.681C282.748 196.94 283.906 194.085 284.817 191.148C285.659 188.559 286.101 185.855 286.127 183.132C285.976 180.481 285.403 177.871 284.427 175.401C283.345 172.513 282.04 169.713 280.524 167.028C278.973 164.246 277.253 161.486 275.434 158.798C274.51 157.459 273.556 156.13 272.582 154.832L271.102 152.9C270.615 152.285 270.088 151.592 269.653 151.107L282.574 140.82Z" fill="#3638DA"/>
<path opacity="0.8" d="M282.574 140.82C283.223 141.702 283.711 142.397 284.259 143.18L285.814 145.472C286.83 147.006 287.817 148.558 288.774 150.126C290.699 153.274 292.514 156.492 294.191 159.862C295.924 163.309 297.405 166.878 298.622 170.54C299.27 172.497 299.787 174.496 300.171 176.522C300.577 178.716 300.774 180.944 300.76 183.176C300.625 187.388 299.864 191.556 298.503 195.544C297.272 199.214 295.739 202.774 293.921 206.19C292.19 209.493 290.28 212.698 288.197 215.79C287.178 217.329 286.125 218.842 285.038 220.329C284.498 221.075 283.938 221.822 283.368 222.559C282.798 223.296 282.258 223.983 281.549 224.831L270.89 215.789C271.284 215.304 271.874 214.617 272.306 213.991L273.76 212.054C274.742 210.742 275.644 209.411 276.536 208.02C278.296 205.332 279.905 202.548 281.356 199.681C282.748 196.94 283.906 194.085 284.817 191.148C285.659 188.559 286.101 185.855 286.127 183.132C285.976 180.481 285.403 177.871 284.427 175.401C283.345 172.513 282.04 169.713 280.524 167.028C278.973 164.246 277.253 161.486 275.434 158.798C274.51 157.459 273.556 156.13 272.582 154.832L271.102 152.9C270.615 152.285 270.088 151.592 269.653 151.107L282.574 140.82Z" fill="white"/>
<path d="M269.33 158.321C269.017 159.08 268.45 159.706 267.726 160.091C267.001 160.476 266.166 160.595 265.363 160.429C264.998 160.354 264.653 160.197 264.355 159.971C264.058 159.745 263.814 159.455 263.643 159.123C263.471 158.79 263.376 158.423 263.364 158.049C263.353 157.675 263.425 157.303 263.575 156.961C263.888 156.202 264.456 155.578 265.181 155.194C265.905 154.811 266.74 154.694 267.542 154.863C267.908 154.937 268.252 155.092 268.55 155.317C268.847 155.542 269.091 155.831 269.263 156.163C269.434 156.495 269.529 156.861 269.541 157.235C269.553 157.608 269.481 157.979 269.33 158.321Z" fill="#263238"/>
<path opacity="0.2" d="M269.33 158.321C269.017 159.08 268.45 159.706 267.726 160.091C267.001 160.476 266.166 160.595 265.363 160.429C264.998 160.354 264.653 160.197 264.355 159.971C264.058 159.745 263.814 159.455 263.643 159.123C263.471 158.79 263.376 158.423 263.364 158.049C263.353 157.675 263.425 157.303 263.575 156.961C263.888 156.202 264.456 155.578 265.181 155.194C265.905 154.811 266.74 154.694 267.542 154.863C267.908 154.937 268.252 155.092 268.55 155.317C268.847 155.542 269.091 155.831 269.263 156.163C269.434 156.495 269.529 156.861 269.541 157.235C269.553 157.608 269.481 157.979 269.33 158.321Z" fill="white"/>
<path d="M266.029 156.841C265.947 156.843 265.866 156.82 265.798 156.774C265.715 156.715 265.658 156.625 265.64 156.524C265.622 156.423 265.644 156.319 265.702 156.235C273.002 145.796 270.816 136.621 270.794 136.532C270.773 136.48 270.763 136.424 270.764 136.368C270.766 136.312 270.78 136.257 270.805 136.206C270.83 136.156 270.866 136.112 270.909 136.077C270.953 136.042 271.004 136.016 271.058 136.003C271.112 135.989 271.169 135.987 271.224 135.997C271.279 136.007 271.331 136.029 271.377 136.062C271.423 136.094 271.461 136.136 271.49 136.184C271.518 136.233 271.535 136.287 271.541 136.343C271.542 136.433 273.852 145.936 266.336 156.677C266.303 156.728 266.257 156.77 266.203 156.799C266.15 156.828 266.089 156.842 266.029 156.841Z" fill="#263238"/>
<path d="M240.079 151.903C239.981 151.902 239.887 151.866 239.815 151.8C239.742 151.735 239.696 151.645 239.685 151.548C238.755 141.398 244.079 137.583 244.306 137.431C244.391 137.374 244.495 137.352 244.595 137.37C244.695 137.387 244.785 137.442 244.846 137.524C244.904 137.61 244.926 137.715 244.907 137.816C244.887 137.918 244.828 138.007 244.743 138.065C244.693 138.066 239.568 141.808 240.463 151.478C240.47 151.58 240.437 151.68 240.37 151.758C240.304 151.835 240.21 151.884 240.109 151.893L240.079 151.903Z" fill="#263238"/>
<path d="M268.239 158.065C267.925 158.822 267.357 159.447 266.633 159.831C265.909 160.216 265.075 160.336 264.272 160.173C263.906 160.099 263.56 159.943 263.261 159.718C262.962 159.492 262.718 159.202 262.546 158.869C262.375 158.536 262.28 158.168 262.269 157.793C262.258 157.419 262.332 157.046 262.484 156.704C262.806 155.955 263.378 155.341 264.102 154.967C264.825 154.594 265.656 154.484 266.452 154.656C266.81 154.733 267.147 154.889 267.439 155.111C267.73 155.333 267.97 155.617 268.14 155.942C268.311 156.267 268.408 156.625 268.425 156.992C268.442 157.359 268.379 157.725 268.239 158.065Z" fill="#263238"/>
<path opacity="0.4" d="M268.239 158.065C267.925 158.822 267.357 159.447 266.633 159.831C265.909 160.216 265.075 160.336 264.272 160.173C263.906 160.099 263.56 159.943 263.261 159.718C262.962 159.492 262.718 159.202 262.546 158.869C262.375 158.536 262.28 158.168 262.269 157.793C262.258 157.419 262.332 157.046 262.484 156.704C262.806 155.955 263.378 155.341 264.102 154.967C264.825 154.594 265.656 154.484 266.452 154.656C266.81 154.733 267.147 154.889 267.439 155.111C267.73 155.333 267.97 155.617 268.14 155.942C268.311 156.267 268.408 156.625 268.425 156.992C268.442 157.359 268.379 157.725 268.239 158.065Z" fill="white"/>
<path opacity="0.4" d="M266.556 157.545C266.39 157.944 266.09 158.273 265.708 158.475C265.326 158.676 264.886 158.738 264.463 158.65C264.272 158.61 264.091 158.528 263.935 158.409C263.779 158.291 263.652 158.139 263.562 157.965C263.472 157.79 263.421 157.598 263.415 157.402C263.408 157.206 263.445 157.011 263.523 156.831C263.691 156.433 263.991 156.105 264.372 155.904C264.754 155.702 265.193 155.639 265.616 155.726C265.808 155.766 265.988 155.848 266.144 155.967C266.3 156.085 266.428 156.237 266.518 156.411C266.608 156.585 266.658 156.778 266.665 156.974C266.671 157.17 266.634 157.365 266.556 157.545Z" fill="white"/>
<path d="M243.397 175.505C243.296 175.504 243.199 175.463 243.127 175.391C243.055 175.319 243.014 175.222 243.013 175.12C243.011 175.069 243.02 175.019 243.037 174.971C243.055 174.924 243.083 174.88 243.117 174.843C243.152 174.807 243.194 174.777 243.241 174.757C243.287 174.737 243.337 174.726 243.388 174.725C244.12 174.695 244.815 174.397 245.342 173.887C245.87 173.378 246.192 172.692 246.249 171.961L246.831 158.952C246.882 158.04 246.744 157.126 246.426 156.269C246.108 155.413 245.616 154.631 244.982 153.974C244.348 153.316 243.585 152.798 242.742 152.45C241.898 152.102 240.992 151.933 240.079 151.953C238.161 151.999 236.33 152.768 234.951 154.106C233.573 155.444 232.748 157.253 232.641 159.173L232.049 172.182C232.027 172.529 232.077 172.878 232.197 173.205C232.317 173.532 232.504 173.83 232.745 174.08C232.987 174.331 233.278 174.528 233.601 174.659C233.923 174.79 234.269 174.852 234.616 174.841C234.719 174.84 234.819 174.88 234.893 174.952C234.966 175.024 235.009 175.123 235.01 175.226C235.009 175.329 234.968 175.427 234.896 175.501C234.825 175.574 234.728 175.617 234.625 175.621C234.174 175.63 233.725 175.546 233.307 175.373C232.889 175.2 232.511 174.943 232.197 174.617C231.883 174.292 231.639 173.904 231.482 173.48C231.324 173.056 231.255 172.603 231.28 172.151L231.872 159.142C231.989 157.026 232.898 155.031 234.418 153.556C235.937 152.081 237.955 151.234 240.07 151.183C241.088 151.161 242.1 151.351 243.042 151.74C243.983 152.129 244.834 152.709 245.542 153.443C246.249 154.178 246.797 155.051 247.151 156.008C247.505 156.964 247.658 157.984 247.6 159.003L247.018 172.011C246.962 172.943 246.558 173.819 245.888 174.466C245.217 175.113 244.328 175.484 243.397 175.505Z" fill="#263238"/>
<path d="M235.259 175.213C235.267 175.833 234.924 176.347 234.574 176.352C234.225 176.356 233.95 175.849 233.982 175.229C234.014 174.608 234.318 174.084 234.677 174.08C235.036 174.076 235.292 174.583 235.259 175.213Z" fill="#263238"/>
<path d="M244.041 175.108C244.048 175.728 243.705 176.242 243.346 176.246C242.987 176.25 242.721 175.744 242.754 175.123C242.786 174.503 243.089 173.979 243.448 173.975C243.808 173.97 244.063 174.477 244.041 175.108Z" fill="#263238"/>
<path d="M162.735 97.0783L162.021 96.5768C164.072 93.6901 166.978 91.5244 170.328 90.3871C173.677 89.2499 177.299 89.1989 180.679 90.2416L180.419 91.0848C177.217 90.0986 173.786 90.1467 170.612 91.2223C167.438 92.298 164.683 94.3466 162.735 97.0783Z" fill="#3638DA"/>
<path d="M159.83 106.114L158.952 106.125C158.977 104.527 159.231 102.941 159.703 101.415L160.545 101.675C160.097 103.113 159.856 104.608 159.83 106.114Z" fill="#3638DA"/>
<path d="M206.752 106.249C205.964 104.562 204.843 103.051 203.456 101.811C202.069 100.57 200.445 99.6243 198.683 99.0312C196.92 98.438 195.055 98.2097 193.202 98.36C191.349 98.5103 189.546 99.0361 187.901 99.9056C187.049 98.2882 185.884 96.8572 184.474 95.6962C183.064 94.5352 181.437 93.6675 179.688 93.1439C177.939 92.6202 176.104 92.451 174.289 92.6463C172.475 92.8416 170.717 93.3973 169.119 94.2811C162.506 97.9411 160.283 106.449 163.827 113.157L173.02 130.618C173.467 131.468 174.076 132.221 174.813 132.835C175.551 133.448 176.401 133.91 177.317 134.193C178.233 134.477 179.196 134.577 180.15 134.487C181.104 134.397 182.031 134.119 182.878 133.67L200.373 124.458C203.565 122.822 206.007 120.02 207.194 116.631C208.381 113.242 208.223 109.525 206.752 106.249Z" fill="#3638DA"/>
</g>
<defs>
<clipPath id="clip0_1526_3681">
<rect width="499.008" height="500.016" fill="white" transform="translate(0.00878906 6.02759) rotate(-0.689726)"/>
</clipPath>
</defs>
</svg>
