<svg width="32" height="32" viewBox="0 0 32 32" fill="none" xmlns="http://www.w3.org/2000/svg">
<g clip-path="url(#clip0_1670_1201)">
<path d="M5.81752 31.8411V29.7231C5.81752 28.911 5.43327 28.3817 4.77464 28.3817C4.44539 28.3817 4.08864 28.5229 3.84164 28.9818C3.64964 28.5935 3.37527 28.3817 2.96364 28.3817C2.68914 28.3817 2.41489 28.4875 2.19527 28.8758V28.4523H1.61902V31.8411H2.19527V29.9701C2.19527 29.3701 2.44227 29.0876 2.82652 29.0876C3.21052 29.0876 3.40277 29.4054 3.40277 29.9701V31.8411H3.97902V29.9701C3.97902 29.3701 4.25327 29.0876 4.61002 29.0876C4.99427 29.0876 5.18627 29.4054 5.18627 29.9701V31.8411H5.81752V31.8411ZM14.3514 28.4523H13.4185V27.4286H12.8423V28.4523H12.3209V29.1228H12.8421V30.6762C12.8421 31.4529 13.0891 31.9116 13.7478 31.9116C13.9948 31.9116 14.269 31.8058 14.4613 31.6646L14.2965 31.0292C14.1319 31.1703 13.9399 31.2057 13.8026 31.2057C13.5283 31.2057 13.4185 30.9939 13.4185 30.6408V29.1228H14.3514V28.4523V28.4523ZM19.2359 28.3815C18.9066 28.3815 18.6871 28.5935 18.5499 28.8758V28.4523H17.9736V31.8411H18.5499V29.9349C18.5499 29.3701 18.7419 29.0524 19.0986 29.0524C19.2084 29.0524 19.3456 29.0878 19.4554 29.123L19.62 28.4171C19.5103 28.3817 19.3456 28.3817 19.2359 28.3817V28.3815ZM11.8544 28.7346C11.5799 28.4875 11.1958 28.3817 10.7841 28.3817C10.1256 28.3817 9.68664 28.8052 9.68664 29.4759C9.68664 30.0408 10.0159 30.3584 10.5921 30.4644L10.8665 30.4998C11.1684 30.5702 11.333 30.6762 11.333 30.8528C11.333 31.0997 11.1135 31.2763 10.7293 31.2763C10.3451 31.2763 10.0433 31.0997 9.85114 30.9233L9.57677 31.4881C9.87864 31.7705 10.2903 31.9116 10.7018 31.9116C11.4701 31.9116 11.9093 31.4529 11.9093 30.8174C11.9093 30.2173 11.5525 29.8995 11.0036 29.7937L10.7293 29.7583C10.4823 29.7229 10.2903 29.6525 10.2903 29.4407C10.2903 29.1936 10.4823 29.0524 10.7841 29.0524C11.1135 29.0524 11.4428 29.2288 11.6074 29.3348L11.8544 28.7346V28.7346ZM27.1663 28.3817C26.8369 28.3817 26.6174 28.5935 26.4801 28.8758V28.4523H25.9039V31.8411H26.4801V29.9349C26.4801 29.3701 26.6723 29.0524 27.0289 29.0524C27.1388 29.0524 27.276 29.0878 27.3858 29.123L27.5504 28.4171C27.4406 28.3817 27.276 28.3817 27.1663 28.3817V28.3817ZM19.8121 30.1467C19.8121 31.1703 20.3609 31.9116 21.2116 31.9116C21.5958 31.9116 21.8701 31.8058 22.1445 31.5235L21.8701 30.9233C21.6506 31.1351 21.4311 31.2409 21.1841 31.2409C20.7176 31.2409 20.3884 30.8174 20.3884 30.1467C20.3884 29.5113 20.7176 29.0876 21.1841 29.0524C21.4311 29.0524 21.6506 29.1582 21.8701 29.3701L22.1445 28.77C21.8701 28.4875 21.5958 28.3817 21.2116 28.3817C20.3609 28.3817 19.8121 29.123 19.8121 30.1467ZM25.1356 30.1467V28.4523H24.5594V28.8758C24.3673 28.5582 24.0929 28.3817 23.7361 28.3817C22.9953 28.3817 22.419 29.123 22.419 30.1467C22.419 31.1703 22.9953 31.9116 23.7361 31.9116C24.1203 31.9116 24.3948 31.7352 24.5594 31.4175V31.8411H25.1356V30.1467V30.1467ZM23.0226 30.1467C23.0226 29.5465 23.3245 29.0524 23.8184 29.0524C24.2849 29.0524 24.6143 29.5113 24.6143 30.1467C24.6143 30.7468 24.2849 31.2409 23.8184 31.2409C23.3245 31.2056 23.0226 30.7468 23.0226 30.1467V30.1467ZM16.1351 28.3817C15.3668 28.3817 14.8179 29.0876 14.8179 30.1467C14.8179 31.2057 15.3666 31.9116 16.1625 31.9116C16.5466 31.9116 16.9309 31.7705 17.2328 31.4529L16.9583 30.9233C16.7388 31.1351 16.4644 31.2763 16.19 31.2763C15.8333 31.2763 15.4765 31.0645 15.3941 30.4642H17.3425V30.182C17.37 29.0876 16.876 28.3817 16.135 28.3817H16.1351ZM16.1351 29.017C16.4918 29.017 16.7389 29.2995 16.7936 29.8291H15.4216C15.4765 29.3701 15.7235 29.017 16.1351 29.017ZM30.4316 30.1467V27.1108H29.8554V28.8758C29.6633 28.5582 29.3889 28.3817 29.0321 28.3817C28.2913 28.3817 27.715 29.123 27.715 30.1467C27.715 31.1703 28.2913 31.9116 29.0321 31.9116C29.4164 31.9116 29.6908 31.7352 29.8554 31.4175V31.8411H30.4316V30.1467V30.1467ZM28.3188 30.1467C28.3188 29.5465 28.6205 29.0524 29.1145 29.0524C29.581 29.0524 29.9103 29.5113 29.9103 30.1467C29.9103 30.7468 29.581 31.2409 29.1145 31.2409C28.6205 31.2056 28.3188 30.7468 28.3188 30.1467V30.1467ZM9.05539 30.1467V28.4523H8.47914V28.8758C8.28702 28.5582 8.01264 28.3817 7.65589 28.3817C6.91502 28.3817 6.33877 29.123 6.33877 30.1467C6.33877 31.1703 6.91502 31.9116 7.65589 31.9116C8.04014 31.9116 8.31452 31.7352 8.47914 31.4175V31.8411H9.05539V30.1467V30.1467ZM6.91502 30.1467C6.91502 29.5465 7.21689 29.0524 7.71077 29.0524C8.17727 29.0524 8.50664 29.5113 8.50664 30.1467C8.50664 30.7468 8.17727 31.2409 7.71077 31.2409C7.21689 31.2056 6.91502 30.7468 6.91502 30.1467V30.1467Z" fill="black"/>
<path d="M11.6622 2.71802H20.306V22.6981H11.6622V2.71802Z" fill="#FF5F00"/>
<path d="M12.2111 12.7082C12.2111 8.64868 13.6929 5.04796 15.9704 2.71807C14.2966 1.02368 12.1838 0 9.87875 0C4.41788 0 0 5.6833 0 12.7082C0 19.7329 4.41788 25.4164 9.87863 25.4164C12.1836 25.4164 14.2965 24.3927 15.9704 22.6981C13.6929 20.4036 12.2111 16.7677 12.2111 12.7082V12.7082Z" fill="#EB001B"/>
<path d="M31.9683 12.7082C31.9683 19.7329 27.5504 25.4164 22.0897 25.4164C19.7847 25.4164 17.6718 24.3927 15.9979 22.6981C18.3029 20.3684 19.7573 16.7677 19.7573 12.7082C19.7573 8.64868 18.2754 5.04796 15.9979 2.71807C17.6717 1.02368 19.7847 0 22.0897 0C27.5504 0 31.9684 5.71867 31.9684 12.7082H31.9683Z" fill="#F79E1B"/>
</g>
<defs>
<clipPath id="clip0_1670_1201">
<rect width="32" height="32" fill="white"/>
</clipPath>
</defs>
</svg>
