<svg width="582" height="495" viewBox="0 0 582 495" fill="none" xmlns="http://www.w3.org/2000/svg">
<path d="M582 436.329H0V436.654H582V436.329Z" fill="#E0E0E0"/>
<path d="M441.54 448.308H401.499V448.632H441.54V448.308Z" fill="#E0E0E0"/>
<path d="M488.647 447.385H466.112V447.71H488.647V447.385Z" fill="#E0E0E0"/>
<path d="M287.904 448.152H258.012V448.476H287.904V448.152Z" fill="#E0E0E0"/>
<path d="M309.496 452.764H289.08V453.088H309.496V452.764Z" fill="#E0E0E0"/>
<path d="M168.396 444.865H106.715V445.19H168.396V444.865Z" fill="#E0E0E0"/>
<path d="M275.868 378.386H51.1114C49.3506 378.382 47.6631 377.599 46.4191 376.208C45.1752 374.818 44.4766 372.933 44.4766 370.967V18.3314C44.4919 16.3775 45.1973 14.5092 46.4396 13.1324C47.6819 11.7556 49.3607 10.9814 51.1114 10.9781H275.868C277.631 10.9781 279.321 11.7597 280.568 13.1509C281.814 14.5421 282.515 16.4289 282.515 18.3964V370.967C282.515 372.935 281.814 374.822 280.568 376.213C279.321 377.604 277.631 378.386 275.868 378.386ZM51.1114 11.2379C49.4278 11.2414 47.8143 11.9902 46.6249 13.3202C45.4356 14.6501 44.7676 16.4524 44.7676 18.3314V370.967C44.7676 372.846 45.4356 374.649 46.6249 375.979C47.8143 377.309 49.4278 378.057 51.1114 378.061H275.868C277.553 378.057 279.167 377.309 280.359 375.979C281.55 374.65 282.22 372.848 282.224 370.967V18.3314C282.22 16.4512 281.55 14.6489 280.359 13.3194C279.167 11.9898 277.553 11.2414 275.868 11.2379H51.1114Z" fill="#E0E0E0"/>
<path d="M527.653 378.386H302.885C301.123 378.382 299.434 377.6 298.188 376.209C296.943 374.819 296.241 372.934 296.238 370.967V18.3314C296.257 16.3763 296.965 14.5081 298.209 13.1316C299.453 11.7551 301.133 10.9814 302.885 10.9781H527.653C529.402 10.9848 531.078 11.7605 532.317 13.137C533.557 14.5134 534.261 16.3797 534.276 18.3314V370.967C534.276 372.93 533.579 374.813 532.338 376.204C531.096 377.594 529.412 378.379 527.653 378.386ZM302.885 11.2379C301.2 11.2414 299.585 11.9898 298.394 13.3194C297.203 14.6489 296.532 16.4512 296.529 18.3314V370.967C296.532 372.848 297.203 374.65 298.394 375.979C299.585 377.309 301.2 378.057 302.885 378.061H527.653C529.338 378.057 530.952 377.309 532.144 375.979C533.335 374.65 534.005 372.848 534.009 370.967V18.3314C534.005 16.4512 533.335 14.6489 532.144 13.3194C530.952 11.9898 529.338 11.2414 527.653 11.2379H302.885Z" fill="#E0E0E0"/>
<path d="M505.211 42.5092H329.796V210.831H505.211V42.5092Z" fill="#E0E0E0"/>
<path d="M509.111 42.5092H333.696V210.831H509.111V42.5092Z" fill="#F0F0F0"/>
<path d="M502.115 202.932V50.4081L340.691 50.4081V202.932H502.115Z" fill="#FAFAFA"/>
<path d="M450.526 202.932V50.4081H439.981V202.932H450.526Z" fill="#E0E0E0"/>
<path d="M395.05 202.932V50.4081H384.504V202.932H395.05Z" fill="#E0E0E0"/>
<path d="M454.239 207.933V44.5228H443.693V207.933H454.239Z" fill="#F0F0F0"/>
<path d="M398.751 207.946V44.5358H388.206V207.946H398.751Z" fill="#F0F0F0"/>
<path d="M502.115 202.919V50.3951H499.17V202.919H502.115Z" fill="#E0E0E0"/>
<path d="M206.424 175.441C206.424 175.441 185.076 134.4 214.7 101.674C214.7 101.674 222.429 107.299 222.313 114.86C222.196 122.422 214.025 124.331 215.783 130.645C217.54 136.959 225.234 143.131 220.182 148.353C215.131 153.576 220.997 158.201 220.66 164.593C220.322 170.985 206.424 175.441 206.424 175.441Z" fill="#E0E0E0"/>
<path d="M209.776 182.158C209.776 182.158 218.436 135.673 181.095 115.068C181.095 115.068 175.345 123.123 177.603 130.256C179.861 137.388 188.137 136.323 188.254 142.936C188.37 149.548 182.818 158.123 189.08 161.293C195.343 164.463 191.094 170.933 193.224 176.883C195.354 182.833 209.776 182.158 209.776 182.158Z" fill="#E6E6E6"/>
<path d="M190.768 170.348C190.768 170.348 191.141 210.48 205.516 210.48C219.891 210.48 220.252 170.348 220.252 170.348H190.768Z" fill="#F0F0F0"/>
<path d="M104.399 195.383C104.399 195.383 105.203 210.48 135.897 210.48C166.592 210.48 167.407 195.383 167.407 195.383H104.399Z" fill="#E6E6E6"/>
<path d="M428.003 286.404H411.8C409.781 286.404 408.145 288.23 408.145 290.483V320.39C408.145 322.643 409.781 324.47 411.8 324.47H428.003C430.021 324.47 431.658 322.643 431.658 320.39V290.483C431.658 288.23 430.021 286.404 428.003 286.404Z" fill="#F0F0F0"/>
<path d="M470.978 298.85H460.071C458.715 298.85 457.615 300.077 457.615 301.591V321.729C457.615 323.242 458.715 324.47 460.071 324.47H470.978C472.334 324.47 473.434 323.242 473.434 321.729V301.591C473.434 300.077 472.334 298.85 470.978 298.85Z" fill="#E6E6E6"/>
<path d="M472.608 296.369H458.442C457.985 296.369 457.615 296.782 457.615 297.291V298.33C457.615 298.84 457.985 299.253 458.442 299.253H472.608C473.064 299.253 473.434 298.84 473.434 298.33V297.291C473.434 296.782 473.064 296.369 472.608 296.369Z" fill="#F0F0F0"/>
<path d="M370.641 303.293C370.641 303.293 371.223 324.47 393.444 324.47C415.665 324.47 416.258 303.293 416.258 303.293H370.641Z" fill="#E6E6E6"/>
<path d="M315.374 275.322H349.002V267.917H315.374V275.322Z" fill="#E0E0E0"/>
<path d="M516.187 267.93H349.002V275.335H516.187V267.93Z" fill="#F0F0F0"/>
<path d="M315.374 331.875H349.002V324.47H315.374V331.875Z" fill="#E0E0E0"/>
<path d="M516.187 324.47H349.002V331.875H516.187V324.47Z" fill="#F0F0F0"/>
<path d="M327.492 275.322H321.288V436.316H327.492V275.322Z" fill="#E0E0E0"/>
<path d="M355.206 275.322H349.002V436.316H355.206V275.322Z" fill="#F0F0F0"/>
<path d="M494.677 275.322H488.473V436.316H494.677V275.322Z" fill="#E0E0E0"/>
<path d="M516.188 275.322H509.983V436.316H516.188V275.322Z" fill="#F0F0F0"/>
<path d="M104.399 219.899H72.5986V426.585H104.399V219.899Z" fill="#E6E6E6"/>
<path d="M235.524 426.572H78.7095V436.329H235.524V426.572Z" fill="#E6E6E6"/>
<path d="M104.399 426.572H241.623L241.623 219.886L104.399 219.886L104.399 426.572Z" fill="#F0F0F0"/>
<path d="M116.901 348.479H229.122V297.992H116.901V348.479Z" fill="#E6E6E6"/>
<path d="M116.901 408.163H229.122V357.677H116.901V408.163Z" fill="#E6E6E6"/>
<path d="M185.611 303.527H160.411C159.59 303.524 158.805 303.158 158.225 302.511C157.645 301.864 157.318 300.987 157.314 300.071C157.314 299.153 157.64 298.273 158.221 297.623C158.801 296.973 159.588 296.606 160.411 296.602H185.611C186.434 296.606 187.221 296.973 187.801 297.623C188.382 298.273 188.708 299.153 188.708 300.071C188.704 300.987 188.377 301.864 187.797 302.511C187.217 303.158 186.432 303.524 185.611 303.527Z" fill="#F0F0F0"/>
<path d="M116.901 288.781H229.122V238.295H116.901V288.781Z" fill="#E6E6E6"/>
<path d="M185.611 243.843H160.411C159.588 243.839 158.801 243.472 158.221 242.822C157.64 242.172 157.314 241.292 157.314 240.374C157.318 239.459 157.645 238.582 158.225 237.934C158.805 237.287 159.59 236.922 160.411 236.918H185.611C186.432 236.922 187.217 237.287 187.797 237.934C188.377 238.582 188.704 239.459 188.708 240.374C188.708 241.292 188.382 242.172 187.801 242.822C187.221 243.472 186.434 243.839 185.611 243.843Z" fill="#F0F0F0"/>
<path d="M185.611 363.211H160.411C159.59 363.208 158.805 362.843 158.225 362.195C157.645 361.548 157.318 360.671 157.314 359.755C157.314 358.838 157.64 357.957 158.221 357.307C158.801 356.657 159.588 356.29 160.411 356.287H185.611C186.434 356.29 187.221 356.657 187.801 357.307C188.382 357.957 188.708 358.838 188.708 359.755C188.704 360.671 188.377 361.548 187.797 362.195C187.217 362.843 186.432 363.208 185.611 363.211Z" fill="#F0F0F0"/>
<path d="M245.86 210.48H104.399V219.899H245.86V210.48Z" fill="#E6E6E6"/>
<path d="M68.1525 219.886H104.399V210.467H68.1525V219.886Z" fill="#E0E0E0"/>
<path d="M139.843 50.4081H88.3945V113.47H139.843V50.4081Z" fill="#E6E6E6"/>
<path d="M145.418 50.4081H92.27V113.47H145.418V50.4081Z" fill="#F0F0F0"/>
<path d="M140.96 108.494V55.371H96.7168V108.494H140.96Z" fill="#FAFAFA"/>
<path d="M130.24 95.6195V68.2458H107.449V95.6195H130.24Z" fill="#F0F0F0"/>
<path d="M194.085 31.791H155.068V78.5744H194.085V31.791Z" fill="#E6E6E6"/>
<path d="M198.229 31.791H158.805V78.5744H198.229V31.791Z" fill="#F0F0F0"/>
<path d="M194.923 74.8847V35.4806H162.11V74.8847H194.923Z" fill="#FAFAFA"/>
<path d="M178.511 45.2114L169.537 62.5684H187.486L178.511 45.2114Z" fill="#F0F0F0"/>
<path d="M291 495C415.644 495 516.688 488.416 516.688 480.293C516.688 472.171 415.644 465.587 291 465.587C166.356 465.587 65.312 472.171 65.312 480.293C65.312 488.416 166.356 495 291 495Z" fill="#F5F5F5"/>
<path d="M488.647 128.969H374.459C368.435 128.969 363.552 134.42 363.552 141.143V175.805C363.552 182.528 368.435 187.978 374.459 187.978H488.647C494.671 187.978 499.554 182.528 499.554 175.805V141.143C499.554 134.42 494.671 128.969 488.647 128.969Z" fill="#407BFF"/>
<path d="M465.996 138.921H376.799C375.744 138.921 374.89 139.875 374.89 141.052V143.39C374.89 144.567 375.744 145.521 376.799 145.521H465.996C467.05 145.521 467.905 144.567 467.905 143.39V141.052C467.905 139.875 467.05 138.921 465.996 138.921Z" fill="#407BFF"/>
<path d="M437.746 154.823H376.799C375.744 154.823 374.89 155.777 374.89 156.954V159.292C374.89 160.469 375.744 161.423 376.799 161.423H437.746C438.8 161.423 439.655 160.469 439.655 159.292V156.954C439.655 155.777 438.8 154.823 437.746 154.823Z" fill="#407BFF"/>
<path d="M421.403 170.725H376.799C375.744 170.725 374.89 171.679 374.89 172.856V175.194C374.89 176.371 375.744 177.325 376.799 177.325H421.403C422.457 177.325 423.312 176.371 423.312 175.194V172.856C423.312 171.679 422.457 170.725 421.403 170.725Z" fill="#407BFF"/>
<path d="M476.681 170.725H432.077C431.023 170.725 430.168 171.679 430.168 172.856V175.194C430.168 176.371 431.023 177.325 432.077 177.325H476.681C477.736 177.325 478.59 176.371 478.59 175.194V172.856C478.59 171.679 477.736 170.725 476.681 170.725Z" fill="#407BFF"/>
<g opacity="0.5">
<path d="M465.996 138.921H376.799C375.744 138.921 374.89 139.875 374.89 141.052V143.39C374.89 144.567 375.744 145.521 376.799 145.521H465.996C467.05 145.521 467.905 144.567 467.905 143.39V141.052C467.905 139.875 467.05 138.921 465.996 138.921Z" fill="white"/>
<path d="M437.746 154.823H376.799C375.744 154.823 374.89 155.777 374.89 156.954V159.292C374.89 160.469 375.744 161.423 376.799 161.423H437.746C438.8 161.423 439.655 160.469 439.655 159.292V156.954C439.655 155.777 438.8 154.823 437.746 154.823Z" fill="white"/>
<path d="M421.403 170.725H376.799C375.744 170.725 374.89 171.679 374.89 172.856V175.194C374.89 176.371 375.744 177.325 376.799 177.325H421.403C422.457 177.325 423.312 176.371 423.312 175.194V172.856C423.312 171.679 422.457 170.725 421.403 170.725Z" fill="white"/>
<path d="M476.681 170.725H432.077C431.023 170.725 430.168 171.679 430.168 172.856V175.194C430.168 176.371 431.023 177.325 432.077 177.325H476.681C477.736 177.325 478.59 176.371 478.59 175.194V172.856C478.59 171.679 477.736 170.725 476.681 170.725Z" fill="white"/>
</g>
<path d="M397.18 115.211H267.569C258.736 115.211 251.576 123.203 251.576 133.062V183.886C251.576 193.744 258.736 201.736 267.569 201.736H397.18C406.013 201.736 413.174 193.744 413.174 183.886V133.062C413.174 123.203 406.013 115.211 397.18 115.211Z" fill="#407BFF"/>
<path d="M401.766 129.801H271.003C269.453 129.801 268.197 131.203 268.197 132.932V136.349C268.197 138.078 269.453 139.48 271.003 139.48H401.766C403.316 139.48 404.572 138.078 404.572 136.349V132.932C404.572 131.203 403.316 129.801 401.766 129.801Z" fill="#407BFF"/>
<path d="M360.34 153.121H271.003C269.453 153.121 268.197 154.523 268.197 156.252V159.669C268.197 161.398 269.453 162.8 271.003 162.8H360.34C361.889 162.8 363.145 161.398 363.145 159.669V156.252C363.145 154.523 361.889 153.121 360.34 153.121Z" fill="#407BFF"/>
<path d="M336.384 176.441H271.003C269.453 176.441 268.197 177.843 268.197 179.572V182.989C268.197 184.718 269.453 186.12 271.003 186.12H336.384C337.934 186.12 339.19 184.718 339.19 182.989V179.572C339.19 177.843 337.934 176.441 336.384 176.441Z" fill="#407BFF"/>
<path d="M406.527 176.441H352.052C350.503 176.441 349.247 177.843 349.247 179.572V182.989C349.247 184.718 350.503 186.12 352.052 186.12H406.527C408.076 186.12 409.332 184.718 409.332 182.989V179.572C409.332 177.843 408.076 176.441 406.527 176.441Z" fill="#407BFF"/>
<g opacity="0.5">
<path d="M401.766 129.801H271.003C269.453 129.801 268.197 131.203 268.197 132.932V136.349C268.197 138.078 269.453 139.48 271.003 139.48H401.766C403.316 139.48 404.572 138.078 404.572 136.349V132.932C404.572 131.203 403.316 129.801 401.766 129.801Z" fill="white"/>
<path d="M360.34 153.121H271.003C269.453 153.121 268.197 154.523 268.197 156.252V159.669C268.197 161.398 269.453 162.8 271.003 162.8H360.34C361.889 162.8 363.145 161.398 363.145 159.669V156.252C363.145 154.523 361.889 153.121 360.34 153.121Z" fill="white"/>
<path d="M336.384 176.441H271.003C269.453 176.441 268.197 177.843 268.197 179.572V182.989C268.197 184.718 269.453 186.12 271.003 186.12H336.384C337.934 186.12 339.19 184.718 339.19 182.989V179.572C339.19 177.843 337.934 176.441 336.384 176.441Z" fill="white"/>
<path d="M406.527 176.441H352.052C350.503 176.441 349.247 177.843 349.247 179.572V182.989C349.247 184.718 350.503 186.12 352.052 186.12H406.527C408.076 186.12 409.332 184.718 409.332 182.989V179.572C409.332 177.843 408.076 176.441 406.527 176.441Z" fill="white"/>
</g>
<path d="M316.596 217.417H254.171C250.044 217.417 246.698 221.152 246.698 225.758V330.134C246.698 334.741 250.044 338.475 254.171 338.475H316.596C320.724 338.475 324.069 334.741 324.069 330.134V225.758C324.069 221.152 320.724 217.417 316.596 217.417Z" fill="#407BFF"/>
<path opacity="0.4" d="M316.596 217.417H254.171C250.044 217.417 246.698 221.152 246.698 225.758V330.134C246.698 334.741 250.044 338.475 254.171 338.475H316.596C320.724 338.475 324.069 334.741 324.069 330.134V225.758C324.069 221.152 320.724 217.417 316.596 217.417Z" fill="black"/>
<path d="M313.733 230.045H257.023C256.264 230.045 255.649 230.732 255.649 231.579V233.878C255.649 234.725 256.264 235.411 257.023 235.411H313.733C314.492 235.411 315.107 234.725 315.107 233.878V231.579C315.107 230.732 314.492 230.045 313.733 230.045Z" fill="#FAFAFA"/>
<path d="M295.679 242.959H257.023C256.264 242.959 255.649 243.646 255.649 244.492V246.792C255.649 247.639 256.264 248.325 257.023 248.325H295.679C296.438 248.325 297.053 247.639 297.053 246.792V244.492C297.053 243.646 296.438 242.959 295.679 242.959Z" fill="#FAFAFA"/>
<path d="M313.733 255.886H257.023C256.264 255.886 255.649 256.572 255.649 257.419V259.719C255.649 260.565 256.264 261.252 257.023 261.252H313.733C314.492 261.252 315.107 260.565 315.107 259.719V257.419C315.107 256.572 314.492 255.886 313.733 255.886Z" fill="#FAFAFA"/>
<path d="M278.103 268.8H257.023C256.264 268.8 255.649 269.486 255.649 270.333V272.633C255.649 273.479 256.264 274.166 257.023 274.166H278.103C278.862 274.166 279.476 273.479 279.476 272.633V270.333C279.476 269.486 278.862 268.8 278.103 268.8Z" fill="#FAFAFA"/>
<path d="M307.599 268.8H286.519C285.76 268.8 285.145 269.486 285.145 270.333V272.633C285.145 273.479 285.76 274.166 286.519 274.166H307.599C308.357 274.166 308.972 273.479 308.972 272.633V270.333C308.972 269.486 308.357 268.8 307.599 268.8Z" fill="#FAFAFA"/>
<path d="M313.733 281.727H257.023C256.264 281.727 255.649 282.413 255.649 283.26V285.559C255.649 286.406 256.264 287.092 257.023 287.092H313.733C314.492 287.092 315.107 286.406 315.107 285.559V283.26C315.107 282.413 314.492 281.727 313.733 281.727Z" fill="#FAFAFA"/>
<path d="M313.733 294.641H257.023C256.264 294.641 255.649 295.327 255.649 296.174V298.473C255.649 299.32 256.264 300.006 257.023 300.006H313.733C314.492 300.006 315.107 299.32 315.107 298.473V296.174C315.107 295.327 314.492 294.641 313.733 294.641Z" fill="#FAFAFA"/>
<path d="M303.676 307.568H257.023C256.264 307.568 255.649 308.254 255.649 309.101V311.4C255.649 312.247 256.264 312.933 257.023 312.933H303.676C304.435 312.933 305.05 312.247 305.05 311.4V309.101C305.05 308.254 304.435 307.568 303.676 307.568Z" fill="#FAFAFA"/>
<path d="M278.79 320.481H257.023C256.264 320.481 255.649 321.168 255.649 322.014V324.314C255.649 325.161 256.264 325.847 257.023 325.847H278.79C279.548 325.847 280.163 325.161 280.163 324.314V322.014C280.163 321.168 279.548 320.481 278.79 320.481Z" fill="#FAFAFA"/>
<path d="M333.486 216.677H246.896L285.18 250.676L343.88 275.361V228.253C343.874 225.18 342.776 222.236 340.828 220.066C338.879 217.896 336.239 216.677 333.486 216.677Z" fill="#407BFF"/>
<path opacity="0.4" d="M333.486 216.677H246.896L285.18 250.676L343.88 275.361V228.253C343.874 225.18 342.776 222.236 340.828 220.066C338.879 217.896 336.239 216.677 333.486 216.677Z" fill="black"/>
<path d="M329.703 234.19H266.347C265.395 234.19 264.624 235.051 264.624 236.113V239.698C264.624 240.76 265.395 241.621 266.347 241.621H329.703C330.655 241.621 331.426 240.76 331.426 239.698V236.113C331.426 235.051 330.655 234.19 329.703 234.19Z" fill="#FAFAFA"/>
<path d="M483.235 308.711V240.738C483.235 235.529 479.451 231.306 474.784 231.306H369.035C364.368 231.306 360.584 235.529 360.584 240.738V308.711C360.584 313.92 364.368 318.143 369.035 318.143H474.784C479.451 318.143 483.235 313.92 483.235 308.711Z" fill="#407BFF"/>
<path d="M502.545 287.17V219.197C502.545 213.988 498.762 209.765 494.095 209.765H388.345C383.678 209.765 379.895 213.988 379.895 219.197V287.17C379.895 292.38 383.678 296.602 388.345 296.602H494.095C498.762 296.602 502.545 292.38 502.545 287.17Z" fill="#407BFF"/>
<path opacity="0.5" d="M502.545 287.17V219.197C502.545 213.988 498.762 209.765 494.095 209.765H388.345C383.678 209.765 379.895 213.988 379.895 219.197V287.17C379.895 292.38 383.678 296.602 388.345 296.602H494.095C498.762 296.602 502.545 292.38 502.545 287.17Z" fill="white"/>
<path d="M491.813 263.876V222.03C491.813 219.712 490.13 217.833 488.054 217.833H453.495C451.418 217.833 449.735 219.712 449.735 222.03V263.876C449.735 266.194 451.418 268.072 453.495 268.072H488.054C490.13 268.072 491.813 266.194 491.813 263.876Z" fill="#407BFF"/>
<path opacity="0.7" d="M491.813 263.876V222.03C491.813 219.712 490.13 217.833 488.054 217.833H453.495C451.418 217.833 449.735 219.712 449.735 222.03V263.876C449.735 266.194 451.418 268.072 453.495 268.072H488.054C490.13 268.072 491.813 266.194 491.813 263.876Z" fill="white"/>
<path d="M443.146 284.117V252.054C443.146 250.274 441.854 248.832 440.26 248.832H413.779C412.184 248.832 410.892 250.274 410.892 252.054V284.117C410.892 285.897 412.184 287.339 413.779 287.339H440.26C441.854 287.339 443.146 285.897 443.146 284.117Z" fill="#407BFF"/>
<path opacity="0.3" d="M443.146 284.117V252.054C443.146 250.274 441.854 248.832 440.26 248.832H413.779C412.184 248.832 410.892 250.274 410.892 252.054V284.117C410.892 285.897 412.184 287.339 413.779 287.339H440.26C441.854 287.339 443.146 285.897 443.146 284.117Z" fill="white"/>
<path d="M427.014 80.8219V63.5039C427.014 58.2086 423.168 53.916 418.423 53.916L134.256 53.916C129.512 53.916 125.666 58.2086 125.666 63.5039V80.8219C125.666 86.1172 129.512 90.4099 134.256 90.4099L418.423 90.4099C423.168 90.4099 427.014 86.1172 427.014 80.8219Z" fill="#407BFF"/>
<path opacity="0.5" d="M427.014 80.8219V63.5039C427.014 58.2086 423.168 53.916 418.423 53.916L134.256 53.916C129.512 53.916 125.666 58.2086 125.666 63.5039V80.8219C125.666 86.1172 129.512 90.4099 134.256 90.4099L418.423 90.4099C423.168 90.4099 427.014 86.1172 427.014 80.8219Z" fill="white"/>
<path d="M373.248 96.516V83.9529H291.477V96.516H373.248Z" fill="#407BFF"/>
<path opacity="0.5" d="M373.248 96.516V83.9529H291.477V96.516H373.248Z" fill="white"/>
<path d="M456.335 26.906V9.58794C456.335 4.29267 452.489 0 447.745 0L163.577 0C158.833 0 154.987 4.29267 154.987 9.58794V26.906C154.987 32.2013 158.833 36.4939 163.577 36.4939L447.745 36.4939C452.489 36.4939 456.335 32.2013 456.335 26.906Z" fill="#407BFF"/>
<path d="M151.739 191.902C150.714 194.5 149.585 197.306 148.596 200.047C147.607 202.789 146.582 205.608 145.686 208.414C143.847 213.885 142.372 219.5 141.274 225.213L140.937 227.291L140.82 228.071C140.82 228.292 140.82 228.577 140.751 228.837C140.706 230.102 140.73 231.369 140.82 232.631C141.042 235.372 141.437 238.308 141.984 241.244C142.962 247.13 144.208 253.197 145.476 259.173L139.505 261.771C136.722 256.108 134.351 250.204 132.416 244.116C131.397 240.947 130.573 237.705 129.949 234.411C129.599 232.588 129.381 230.738 129.297 228.876C129.297 228.357 129.297 227.863 129.297 227.304C129.297 226.746 129.297 226.122 129.378 225.758L129.611 223.16C129.959 219.813 130.492 216.494 131.206 213.221C131.858 209.973 132.696 206.816 133.534 203.698C134.372 200.58 135.42 197.514 136.525 194.5C137.072 192.993 137.689 191.499 138.225 190.005C138.76 188.511 139.389 187.082 140.134 185.484L151.739 191.902Z" fill="#E4897B"/>
<path d="M145.163 257.419L149.702 262.369L139.796 267.566C139.796 267.566 137.399 262.876 139.063 258.64L145.163 257.419Z" fill="#E4897B"/>
<path d="M153.368 269.735L144.999 273.555L139.808 267.514L149.702 262.369L153.368 269.735Z" fill="#E4897B"/>
<path opacity="0.4" d="M322.905 264.409C306.436 262.345 290.884 254.877 278.216 242.95C265.549 231.022 256.334 215.171 251.737 197.399C247.14 179.627 247.367 160.733 252.389 143.105C257.411 125.477 267.004 109.907 279.953 98.3632C292.902 86.8191 308.628 79.8194 325.141 78.2489C341.654 76.6785 358.214 80.6078 372.726 89.5401C387.239 98.4724 399.053 112.007 406.675 128.432C414.297 144.857 417.385 163.436 415.548 181.82C414.327 194.034 410.962 205.86 405.645 216.622C400.328 227.384 393.163 236.871 384.559 244.541C375.956 252.211 366.083 257.913 355.504 261.322C344.925 264.731 333.847 265.78 322.905 264.409Z" fill="#FAFAFA"/>
<path opacity="0.4" d="M383.876 97.7502L256.418 211.415C255.882 210.116 255.359 208.817 254.87 207.518C251.674 199.035 249.63 190.067 248.805 180.911L358.896 82.7317C367.935 86.0968 376.385 91.1775 383.876 97.7502Z" fill="#FAFAFA"/>
<path opacity="0.4" d="M413.29 147.548L293.456 254.405C282.072 247.781 272.207 238.322 264.624 226.759L395.469 110.066C403.903 120.872 410.001 133.695 413.29 147.548Z" fill="#FAFAFA"/>
<path d="M237.91 135.699L236.804 135.283C238.719 128.976 241.126 122.868 243.998 117.03L245.01 117.654C242.177 123.426 239.801 129.465 237.91 135.699ZM252.041 105.376L251.098 104.61C260.664 90.1732 273.184 78.4982 287.613 70.5584L288.137 71.7276C273.871 79.5855 261.495 91.1357 252.041 105.415V105.376ZM379.604 73.5075C375.8 71.2304 371.865 69.2382 367.824 67.5443L368.243 66.3231C372.323 68.0568 376.297 70.0878 380.139 72.4032L379.604 73.5075Z" fill="#407BFF"/>
<path opacity="0.3" d="M237.91 135.699L236.804 135.283C238.719 128.976 241.126 122.868 243.998 117.03L245.01 117.654C242.177 123.426 239.801 129.465 237.91 135.699ZM252.041 105.376L251.098 104.61C260.664 90.1732 273.184 78.4982 287.613 70.5584L288.137 71.7276C273.871 79.5855 261.495 91.1357 252.041 105.415V105.376ZM379.604 73.5075C375.8 71.2304 371.865 69.2382 367.824 67.5443L368.243 66.3231C372.323 68.0568 376.297 70.0878 380.139 72.4032L379.604 73.5075Z" fill="black"/>
<path d="M418.889 123.669C408.11 98.7185 389.143 79.3543 365.919 69.5906C342.695 59.8269 316.995 60.4126 294.147 71.2261C271.3 82.0396 253.056 102.252 243.199 127.672C233.342 153.093 232.628 181.772 241.204 207.765C233.428 210.805 225.746 214.066 218.11 217.431C207.099 222.307 196.188 227.4 185.379 232.709C174.577 238.048 163.821 243.492 153.171 249.182C147.828 251.976 142.555 254.925 137.235 257.783C134.468 259.11 131.961 261.03 129.856 263.434C128.717 264.766 127.713 266.234 126.864 267.813C125.828 269.68 125.044 271.706 124.536 273.828C123.66 277.651 124.039 281.698 125.604 285.236C127.169 288.775 129.817 291.572 133.068 293.121C134.874 293.966 136.779 294.517 138.725 294.758C140.369 294.965 142.029 294.965 143.672 294.758C146.66 294.353 149.546 293.298 152.17 291.653C157.443 288.677 162.75 285.806 167.988 282.753C178.464 276.79 188.94 270.567 199.288 264.253C209.636 257.939 219.996 251.326 230.099 244.544C237.083 239.828 244.137 235.008 251.051 229.968C264.328 253.361 285.16 270.157 309.23 276.875C333.3 283.593 358.763 279.718 380.342 266.052C401.922 252.387 417.964 229.979 425.144 203.472C432.325 176.964 430.093 148.39 418.912 123.669H418.889ZM365.973 247.779C352.446 255.232 337.243 258.04 322.285 255.849C307.328 253.658 293.289 246.566 281.943 235.469C270.597 224.373 262.454 209.771 258.543 193.51C254.632 177.248 255.129 160.057 259.971 144.111C264.813 128.165 273.783 114.179 285.746 103.922C297.71 93.6653 312.129 87.5982 327.182 86.4878C342.234 85.3775 357.244 89.2738 370.312 97.6841C383.381 106.094 393.922 118.641 400.602 133.737C405.039 143.763 407.662 154.666 408.323 165.824C408.983 176.981 407.668 188.174 404.452 198.765C401.237 209.355 396.183 219.134 389.581 227.544C382.979 235.954 374.957 242.83 365.973 247.779Z" fill="#407BFF"/>
<path opacity="0.3" d="M418.889 123.669C408.11 98.7185 389.143 79.3543 365.919 69.5906C342.695 59.8269 316.995 60.4126 294.147 71.2261C271.3 82.0396 253.056 102.252 243.199 127.672C233.342 153.093 232.628 181.772 241.204 207.765C233.428 210.805 225.746 214.066 218.11 217.431C207.099 222.307 196.188 227.4 185.379 232.709C174.577 238.048 163.821 243.492 153.171 249.182C147.828 251.976 142.555 254.925 137.235 257.783C134.468 259.11 131.961 261.03 129.856 263.434C128.717 264.766 127.713 266.234 126.864 267.813C125.828 269.68 125.044 271.706 124.536 273.828C123.66 277.651 124.039 281.698 125.604 285.236C127.169 288.775 129.817 291.572 133.068 293.121C134.874 293.966 136.779 294.517 138.725 294.758C140.369 294.965 142.029 294.965 143.672 294.758C146.66 294.353 149.546 293.298 152.17 291.653C157.443 288.677 162.75 285.806 167.988 282.753C178.464 276.79 188.94 270.567 199.288 264.253C209.636 257.939 219.996 251.326 230.099 244.544C237.083 239.828 244.137 235.008 251.051 229.968C264.328 253.361 285.16 270.157 309.23 276.875C333.3 283.593 358.763 279.718 380.342 266.052C401.922 252.387 417.964 229.979 425.144 203.472C432.325 176.964 430.093 148.39 418.912 123.669H418.889ZM365.973 247.779C352.446 255.232 337.243 258.04 322.285 255.849C307.328 253.658 293.289 246.566 281.943 235.469C270.597 224.373 262.454 209.771 258.543 193.51C254.632 177.248 255.129 160.057 259.971 144.111C264.813 128.165 273.783 114.179 285.746 103.922C297.71 93.6653 312.129 87.5982 327.182 86.4878C342.234 85.3775 357.244 89.2738 370.312 97.6841C383.381 106.094 393.922 118.641 400.602 133.737C405.039 143.763 407.662 154.666 408.323 165.824C408.983 176.981 407.668 188.174 404.452 198.765C401.237 209.355 396.183 219.134 389.581 227.544C382.979 235.954 374.957 242.83 365.973 247.779Z" fill="black"/>
<path d="M183.912 145.508C183.912 146.275 184.273 146.898 184.727 146.898C185.181 146.898 185.542 146.275 185.542 145.508C185.542 144.741 185.181 144.118 184.727 144.118C184.273 144.118 183.912 144.793 183.912 145.508Z" fill="#263238"/>
<path d="M184.238 146.898C185.062 149.251 186.17 151.467 187.532 153.485C187.061 153.861 186.522 154.117 185.953 154.236C185.384 154.355 184.799 154.334 184.238 154.173V146.898Z" fill="#DE5753"/>
<path d="M181.502 141.234C181.437 141.234 181.373 141.217 181.315 141.186C181.256 141.154 181.205 141.109 181.165 141.052C181.104 140.953 181.08 140.831 181.097 140.713C181.115 140.594 181.172 140.488 181.258 140.415C181.771 139.981 182.37 139.692 183.004 139.572C183.638 139.452 184.289 139.505 184.901 139.727C184.956 139.743 185.007 139.773 185.052 139.813C185.096 139.853 185.132 139.903 185.158 139.96C185.183 140.017 185.198 140.079 185.201 140.142C185.204 140.206 185.195 140.269 185.174 140.329C185.154 140.388 185.123 140.442 185.082 140.487C185.042 140.532 184.994 140.567 184.941 140.59C184.887 140.613 184.83 140.623 184.774 140.619C184.717 140.616 184.661 140.6 184.61 140.571C184.124 140.405 183.609 140.371 183.109 140.473C182.609 140.574 182.137 140.809 181.735 141.156C181.666 141.207 181.585 141.234 181.502 141.234Z" fill="#263238"/>
<path d="M160.399 151.289C161.563 158.266 162.843 171.063 158.467 175.727C158.467 175.727 160.178 182.807 171.806 182.807C184.61 182.807 177.906 175.727 177.906 175.727C170.922 173.856 171.119 168.088 172.33 162.657L160.399 151.289Z" fill="#E4897B"/>
<path d="M153.241 179.404C154.626 177 152.298 171.167 152.298 171.167C152.298 171.167 172.877 165.385 181.293 174.259C183.039 176.091 181.107 178.793 181.107 178.793L153.241 179.404Z" fill="#407BFF"/>
<path opacity="0.1" d="M153.241 179.404C154.626 177 152.298 171.167 152.298 171.167C152.298 171.167 172.877 165.385 181.293 174.259C183.039 176.091 181.107 178.793 181.107 178.793L153.241 179.404Z" fill="black"/>
<path d="M119.194 444.475C118.111 444.475 116.377 442.461 115.865 441.708C115.843 441.671 115.831 441.628 115.831 441.584C115.831 441.54 115.843 441.497 115.865 441.461C115.884 441.425 115.911 441.394 115.944 441.374C115.976 441.353 116.013 441.343 116.051 441.344C116.179 441.344 119.031 441.63 119.811 442.76C119.896 442.879 119.956 443.018 119.988 443.166C120.02 443.314 120.023 443.468 119.997 443.617C119.987 443.811 119.923 443.996 119.815 444.147C119.706 444.298 119.559 444.408 119.392 444.462L119.194 444.475ZM116.493 441.877C117.343 442.968 118.705 444.202 119.287 444.046C119.287 444.046 119.52 443.981 119.59 443.566C119.605 443.479 119.602 443.389 119.582 443.304C119.562 443.218 119.525 443.139 119.473 443.072C118.611 442.343 117.573 441.918 116.493 441.851V441.877Z" fill="#407BFF"/>
<path d="M116.621 441.851C116.412 441.874 116.202 441.874 115.993 441.851C115.956 441.847 115.921 441.832 115.892 441.807C115.863 441.781 115.841 441.747 115.83 441.708C115.813 441.671 115.805 441.631 115.805 441.591C115.805 441.55 115.813 441.51 115.83 441.474C115.911 441.396 117.622 439.408 118.914 439.408C119.069 439.404 119.222 439.437 119.365 439.504C119.507 439.571 119.635 439.671 119.741 439.798C119.857 439.906 119.936 440.055 119.965 440.221C119.995 440.386 119.973 440.558 119.904 440.707C119.566 441.435 117.785 441.851 116.621 441.851ZM116.47 441.396C117.634 441.396 119.322 440.993 119.601 440.422C119.601 440.422 119.682 440.253 119.496 440.045C119.428 439.963 119.345 439.898 119.253 439.855C119.16 439.813 119.061 439.793 118.961 439.798C118.007 440.042 117.139 440.599 116.47 441.396Z" fill="#407BFF"/>
<path d="M196.006 473.966C195.124 473.96 194.243 473.868 193.375 473.693C193.332 473.684 193.293 473.658 193.266 473.62C193.238 473.582 193.223 473.535 193.224 473.486C193.217 473.441 193.223 473.395 193.239 473.353C193.256 473.312 193.283 473.276 193.317 473.252C193.445 473.174 196.425 471.264 197.857 471.706C197.989 471.739 198.115 471.803 198.225 471.892C198.335 471.981 198.427 472.095 198.497 472.225C198.588 472.37 198.637 472.542 198.637 472.719C198.637 472.896 198.588 473.068 198.497 473.213C198.159 473.797 197.1 473.966 196.006 473.966ZM194.039 473.356C195.622 473.616 197.787 473.603 198.183 472.979C198.241 472.901 198.287 472.758 198.183 472.485C198.094 472.324 197.952 472.207 197.787 472.16C196.879 471.901 195.075 472.758 194.039 473.356Z" fill="#407BFF"/>
<path d="M193.422 473.706C193.384 473.719 193.344 473.719 193.306 473.706C193.273 473.683 193.248 473.65 193.234 473.61C193.219 473.571 193.216 473.527 193.224 473.486C193.303 472.133 193.768 470.845 194.551 469.809C194.71 469.656 194.896 469.544 195.096 469.479C195.297 469.414 195.508 469.398 195.715 469.432C196.274 469.432 196.437 469.809 196.472 470.056C196.623 471.134 194.586 473.2 193.55 473.719L193.422 473.706ZM195.506 469.809C195.25 469.807 195.001 469.908 194.807 470.095C194.149 470.915 193.742 471.948 193.643 473.044C194.691 472.329 196.088 470.718 195.971 470.069C195.971 470.069 195.971 469.848 195.576 469.809H195.506Z" fill="#407BFF"/>
<path d="M184.017 473.473H192.572L193.422 451.374H184.866L184.017 473.473Z" fill="#E4897B"/>
<path d="M107.833 435.537L114.98 440.759L130.764 425.884L123.605 420.648L107.833 435.537Z" fill="#E4897B"/>
<path d="M116.156 440.265L108.729 433.471C108.598 433.35 108.433 433.285 108.264 433.285C108.094 433.285 107.929 433.35 107.798 433.471L101.675 438.836C101.527 438.968 101.408 439.135 101.326 439.325C101.244 439.515 101.201 439.723 101.201 439.934C101.201 440.145 101.244 440.354 101.326 440.544C101.408 440.734 101.527 440.901 101.675 441.032C104.306 443.358 105.691 444.345 108.962 447.333C110.976 449.165 115.946 454.777 118.751 457.311C121.557 459.844 124.129 457.116 123.198 455.804C119.019 449.892 117.378 444.839 116.901 441.708C116.818 441.142 116.553 440.629 116.156 440.265Z" fill="#263238"/>
<path d="M192.514 472.368H183.202C183.032 472.369 182.867 472.433 182.734 472.551C182.601 472.669 182.508 472.833 182.469 473.018L180.781 481.502C180.738 481.707 180.738 481.921 180.781 482.126C180.824 482.332 180.907 482.524 181.026 482.688C181.145 482.852 181.296 482.984 181.467 483.073C181.638 483.162 181.826 483.207 182.015 483.203C185.379 483.138 190.244 482.918 194.481 482.918C199.428 482.918 203.712 483.216 209.508 483.216C213 483.216 214.001 479.254 212.523 478.903C205.842 477.266 200.371 477.097 194.597 473.109C193.978 472.651 193.257 472.395 192.514 472.368Z" fill="#263238"/>
<path d="M141.612 178.572C134.197 182.47 129.972 208.583 129.972 208.583L148.096 216.651C150.748 209.421 152.893 201.972 154.509 194.37C157 182.34 149.201 174.545 141.612 178.572Z" fill="#263238"/>
<path d="M151.227 193.292C146.745 198.359 144.697 208.284 143.8 214.741L148.142 216.677C150.719 209.652 152.821 202.422 154.428 195.046C154.043 192.291 153.089 191.187 151.227 193.292Z" fill="#203048"/>
<path d="M191.059 178.39C191.059 178.39 200.161 189.875 191.571 260.888H145.837C145.523 253.093 149.935 214.832 143.16 177.91C148.214 176.816 153.328 176.095 158.467 175.753C164.941 175.324 171.432 175.324 177.906 175.753C182.344 176.251 186.742 177.133 191.059 178.39Z" fill="#263238"/>
<path d="M195.238 205.959L187.532 191.135C186.045 198.052 185.437 205.167 185.728 212.273C185.937 217.366 190.116 236.23 193.876 238.984C194.874 228.012 195.328 216.987 195.238 205.959Z" fill="#203048"/>
<path d="M196.309 188.537C197.473 194.851 198.637 201.321 199.882 207.661C201.128 214.001 202.42 220.367 203.921 226.512C204.305 228.032 204.666 229.591 205.085 231.046L205.399 232.163L205.551 232.722V232.657C205.469 232.54 205.376 232.527 205.446 232.657C205.924 233.24 206.536 233.667 207.215 233.891C208.316 234.348 209.449 234.7 210.602 234.943C216.106 235.917 221.678 236.321 227.248 236.152L228.353 243.219C226.794 243.778 225.339 244.181 223.802 244.583C222.266 244.986 220.753 245.324 219.204 245.584C216.001 246.179 212.754 246.423 209.508 246.311C207.704 246.257 205.91 245.996 204.154 245.532C201.921 244.987 199.823 243.9 198.008 242.349C196.823 241.281 195.845 239.955 195.133 238.451C194.947 238.061 194.784 237.62 194.632 237.243L194.423 236.632L193.992 235.333C193.399 233.683 192.91 232.059 192.374 230.435C190.407 223.939 188.766 217.379 187.322 210.831C185.879 204.283 184.634 197.748 183.598 191.031L196.309 188.537Z" fill="#E4897B"/>
<path d="M179.64 185.354C177.231 194.071 186.997 220.068 186.997 220.068L206.447 214.611C206.447 214.611 205.702 201.1 201.267 190.382C194.586 174.22 182.527 174.895 179.64 185.354Z" fill="#263238"/>
<path d="M227.085 236.152L236.769 235.879L232.113 247.13C232.113 247.13 228.167 247.714 224.932 241.777L221.521 237.23L225.444 236.359C225.984 236.233 226.533 236.163 227.085 236.152Z" fill="#E4897B"/>
<path d="M242.88 237.97L237.34 247.299L232.113 247.13L236.769 235.879L242.88 237.97Z" fill="#E4897B"/>
<path d="M193.422 451.374L192.979 462.767H184.424L184.866 451.374H193.422Z" fill="#CE6F64"/>
<path d="M123.605 420.648L130.764 425.884L122.616 433.549L115.469 428.326L123.605 420.648Z" fill="#CE6F64"/>
<path d="M160.935 143.858C161.447 153.303 161.319 158.877 165.591 163.722C172.016 171.037 182.481 166.711 184.506 157.227C186.333 148.73 185.193 134.699 176.905 130.931C175.076 130.107 173.09 129.816 171.133 130.083C169.175 130.351 167.311 131.169 165.715 132.461C164.118 133.754 162.842 135.477 162.006 137.471C161.17 139.464 160.801 141.662 160.935 143.858Z" fill="#E4897B"/>
<path d="M150.97 142.195C153.077 150.809 158.036 160.734 164.45 161.371C172.411 162.15 176.008 152.965 177.056 143.481C181.828 139.831 179.326 135.816 184.11 135.309C190.255 134.66 188.288 122.11 180.199 120.096C180.199 120.096 182.911 125.748 177.219 122.889C171.806 120.018 165.792 118.854 159.829 119.524C159.829 119.524 167.092 123.578 159.991 125.384C152.891 127.19 150.773 132.075 154.043 135.024C154.043 135.037 149.585 136.531 150.97 142.195Z" fill="#263238"/>
<path d="M172.202 145.43C172.359 147.778 173.206 150.002 174.612 151.757C176.474 154.057 178.418 152.627 178.744 149.834C179.046 147.327 178.43 143.105 176.148 141.831C173.867 140.558 172.051 142.598 172.202 145.43Z" fill="#E4897B"/>
<path d="M175.345 260.888C175.345 260.888 183.679 328.25 177.114 355.247C166.708 397.99 126.922 434.069 126.922 434.069L113.432 424.195C113.432 424.195 147.316 393.729 151.46 357.937C155.184 325.808 145.837 286.95 145.837 260.875L175.345 260.888Z" fill="#407BFF"/>
<path opacity="0.1" d="M175.345 260.888C175.345 260.888 183.679 328.25 177.114 355.247C166.708 397.99 126.922 434.069 126.922 434.069L113.432 424.195C113.432 424.195 147.316 393.729 151.46 357.937C155.184 325.808 145.837 286.95 145.837 260.875L175.345 260.888Z" fill="black"/>
<path d="M178.79 299.396C176.572 296.559 174.129 293.95 171.492 291.601C172.912 313.466 174.076 345.854 172.784 368.863C174.521 364.452 175.969 359.906 177.114 355.26C180.315 342.074 179.978 319.299 178.79 299.396Z" fill="#407BFF"/>
<path opacity="0.3" d="M178.79 299.396C176.572 296.559 174.129 293.95 171.492 291.601C172.912 313.466 174.076 345.854 172.784 368.863C174.521 364.452 175.969 359.906 177.114 355.26C180.315 342.074 179.978 319.299 178.79 299.396Z" fill="black"/>
<path d="M132.359 430.704C132.417 430.704 127.132 434.601 127.132 434.601L112.396 423.818L117.052 419.518L132.359 430.704Z" fill="#407BFF"/>
<path opacity="0.3" d="M132.359 430.704C132.417 430.704 127.132 434.601 127.132 434.601L112.396 423.818L117.052 419.518L132.359 430.704Z" fill="black"/>
<path d="M191.571 260.888C191.571 260.888 204.445 321.82 205.353 350.934C206.377 383.569 196.169 460.559 196.169 460.559H181.677C181.677 460.559 179.896 382.972 179.256 353.247C178.546 320.832 161.505 260.888 161.505 260.888H191.571Z" fill="#407BFF"/>
<path opacity="0.1" d="M191.571 260.888C191.571 260.888 204.445 321.82 205.353 350.934C206.377 383.569 196.169 460.559 196.169 460.559H181.677C181.677 460.559 179.896 382.972 179.256 353.247C178.546 320.832 161.505 260.888 161.505 260.888H191.571Z" fill="black"/>
<path d="M198.951 454.128C199.021 454.128 198.136 460.832 198.136 460.832H180.513L180.036 454.842L198.951 454.128Z" fill="#407BFF"/>
<path opacity="0.3" d="M198.951 454.128C199.021 454.128 198.136 460.832 198.136 460.832H180.513L180.036 454.842L198.951 454.128Z" fill="black"/>
<path d="M414.384 202.334C415.373 203.373 416.153 204.257 416.968 205.244C417.783 206.232 418.551 207.193 419.296 208.193C420.809 210.181 422.229 212.273 423.603 214.377C426.346 218.599 428.786 223.056 430.901 227.707L431.332 228.655C431.542 229.114 431.717 229.593 431.856 230.084C432.137 231.035 432.309 232.022 432.368 233.021C432.444 234.782 432.226 236.544 431.728 238.217C430.877 240.997 429.614 243.597 427.991 245.909C425.066 250.101 421.617 253.803 417.748 256.9L414.85 253.184C416.211 251.404 417.632 249.494 418.9 247.584C420.191 245.734 421.359 243.78 422.392 241.738C423.358 239.957 424.073 238.02 424.511 235.996C424.661 235.272 424.689 234.523 424.592 233.787C424.551 233.54 424.48 233.3 424.383 233.073C424.339 232.973 424.289 232.877 424.231 232.787L423.859 232.085C421.614 228 419.178 224.049 416.561 220.25C415.269 218.34 413.883 216.508 412.487 214.702C411.8 213.793 411.09 212.909 410.38 212.026C409.67 211.142 408.902 210.259 408.285 209.57L414.384 202.334Z" fill="#E4897B"/>
<path d="M415.967 252.093L407.272 250.508L411.823 259.004C411.823 259.004 417.422 258.783 419.017 255.107L415.967 252.093Z" fill="#E4897B"/>
<path d="M400.847 254.431L404.991 261.33L411.823 259.004L407.272 250.508L400.847 254.431Z" fill="#E4897B"/>
<path d="M415.548 473.849C414.957 473.906 414.367 473.726 413.884 473.343C413.738 473.189 413.63 472.996 413.571 472.782C413.512 472.568 413.504 472.34 413.546 472.121C413.555 471.982 413.597 471.848 413.669 471.733C413.741 471.619 413.839 471.528 413.954 471.472C414.966 470.965 417.62 472.862 417.923 473.083C417.958 473.107 417.984 473.142 417.999 473.185C418.014 473.227 418.016 473.273 418.004 473.317C418 473.361 417.983 473.403 417.956 473.436C417.929 473.468 417.893 473.49 417.853 473.499C417.099 473.712 416.326 473.83 415.548 473.849ZM414.384 471.836C414.3 471.821 414.213 471.821 414.128 471.836C414.077 471.862 414.034 471.904 414.003 471.957C413.972 472.01 413.955 472.071 413.954 472.134C413.923 472.279 413.926 472.431 413.963 472.574C413.999 472.718 414.068 472.848 414.163 472.953C414.606 473.395 415.746 473.46 417.271 473.122C416.398 472.478 415.415 472.04 414.384 471.836Z" fill="#407BFF"/>
<path d="M417.876 473.486H417.771C416.945 472.953 415.35 470.887 415.548 469.757C415.586 469.579 415.674 469.419 415.8 469.302C415.926 469.185 416.083 469.117 416.246 469.107C416.404 469.082 416.564 469.097 416.715 469.151C416.866 469.205 417.005 469.297 417.119 469.419C418.074 470.355 418.086 473.161 418.086 473.317C418.083 473.356 418.073 473.395 418.055 473.428C418.036 473.462 418.011 473.491 417.981 473.512L417.876 473.486ZM416.386 469.588H416.293C416.037 469.588 415.979 469.744 415.955 469.861C415.839 470.523 416.828 472.109 417.655 472.849C417.675 471.759 417.395 470.689 416.852 469.783C416.782 469.71 416.699 469.655 416.609 469.622C416.519 469.588 416.423 469.577 416.328 469.588H416.386Z" fill="#407BFF"/>
<path d="M375.879 473.849C375.136 473.928 374.391 473.717 373.772 473.252C373.632 473.114 373.524 472.94 373.458 472.745C373.391 472.551 373.367 472.341 373.388 472.134C373.395 472.008 373.431 471.886 373.492 471.779C373.553 471.673 373.637 471.585 373.737 471.524C374.819 470.848 378.288 472.823 378.684 473.07C378.72 473.096 378.749 473.133 378.768 473.177C378.786 473.22 378.793 473.269 378.789 473.317C378.782 473.362 378.763 473.404 378.733 473.437C378.704 473.47 378.666 473.491 378.626 473.499C377.722 473.713 376.802 473.83 375.879 473.849ZM374.331 471.836C374.197 471.826 374.064 471.857 373.946 471.927C373.905 471.949 373.869 471.984 373.845 472.027C373.82 472.071 373.807 472.122 373.807 472.173C373.789 472.309 373.801 472.447 373.841 472.576C373.882 472.705 373.95 472.821 374.04 472.914C374.575 473.447 376.007 473.538 377.939 473.174C376.812 472.504 375.592 472.052 374.331 471.836Z" fill="#407BFF"/>
<path d="M378.591 473.485H378.498C377.462 472.966 375.402 470.887 375.565 469.757C375.565 469.497 375.774 469.172 376.345 469.107C376.553 469.082 376.764 469.105 376.964 469.174C377.164 469.244 377.35 469.358 377.509 469.51C378.603 470.523 378.812 473.148 378.812 473.265C378.817 473.304 378.812 473.345 378.797 473.381C378.783 473.418 378.76 473.449 378.731 473.472C378.687 473.494 378.638 473.498 378.591 473.485ZM376.508 469.588H376.38C376.007 469.588 375.984 469.796 375.972 469.848C375.879 470.51 377.276 472.16 378.3 472.875C378.199 471.764 377.793 470.716 377.136 469.874C376.96 469.706 376.739 469.606 376.508 469.588Z" fill="#407BFF"/>
<path d="M392.349 172.466C392.012 178.338 391.104 190.265 395.143 193.565C395.143 193.565 394.409 199.58 384.876 200.983C374.4 202.503 379.184 195.903 379.184 195.903C384.737 193.539 384.027 188.823 382.513 184.509L392.349 172.466Z" fill="#E4897B"/>
<path d="M370.664 162.085C370.606 162.086 370.549 162.072 370.497 162.045C370.445 162.018 370.398 161.979 370.361 161.93C370.028 161.489 369.607 161.142 369.132 160.916C368.657 160.69 368.141 160.592 367.626 160.63C367.571 160.641 367.515 160.64 367.461 160.626C367.408 160.612 367.357 160.587 367.312 160.55C367.267 160.514 367.23 160.467 367.202 160.414C367.174 160.361 367.156 160.302 367.149 160.241C367.135 160.118 367.166 159.995 367.233 159.898C367.301 159.801 367.4 159.737 367.509 159.721C368.167 159.659 368.827 159.775 369.436 160.061C370.044 160.346 370.581 160.791 371.001 161.358C371.052 161.426 371.084 161.508 371.094 161.595C371.105 161.683 371.093 161.771 371.06 161.851C371.027 161.932 370.975 162 370.909 162.048C370.843 162.096 370.766 162.123 370.687 162.124L370.664 162.085Z" fill="#263238"/>
<path d="M368.848 167.841C368.435 169.704 367.797 171.496 366.951 173.168C367.339 173.401 367.769 173.536 368.21 173.563C368.65 173.59 369.091 173.508 369.5 173.323L368.848 167.841Z" fill="#DE5753"/>
<path d="M369.314 166.412C369.407 167.191 369.116 167.867 368.662 167.945C368.208 168.023 367.754 167.425 367.673 166.646C367.591 165.866 367.871 165.191 368.325 165.126C368.779 165.061 369.233 165.58 369.314 166.412Z" fill="#263238"/>
<path d="M368.534 165.139L366.799 164.84C366.799 164.84 367.824 166.178 368.534 165.139Z" fill="#263238"/>
<path d="M388.183 473.278H379.453L378.871 450.737H387.601L388.183 473.278Z" fill="#E4897B"/>
<path d="M427.816 473.278H419.086L416.281 450.737H425.011L427.816 473.278Z" fill="#E4897B"/>
<path d="M418.551 472.186H428.352C428.519 472.185 428.681 472.251 428.807 472.373C428.934 472.495 429.016 472.664 429.039 472.849L430.203 481.514C430.224 481.733 430.204 481.954 430.143 482.163C430.083 482.372 429.983 482.565 429.851 482.728C429.719 482.891 429.558 483.021 429.378 483.11C429.198 483.198 429.003 483.244 428.806 483.242C425.395 483.177 423.742 482.957 419.436 482.957C416.782 482.957 412.906 483.255 409.251 483.255C405.596 483.255 405.398 479.215 406.923 478.851C413.755 477.214 414.838 474.954 417.131 472.784C417.531 472.413 418.031 472.203 418.551 472.186Z" fill="#263238"/>
<path d="M379.162 472.186H388.951C389.119 472.184 389.283 472.25 389.411 472.372C389.539 472.494 389.624 472.663 389.649 472.849L390.813 481.514C390.835 481.733 390.814 481.954 390.754 482.163C390.693 482.372 390.594 482.565 390.462 482.728C390.33 482.891 390.169 483.021 389.988 483.11C389.808 483.198 389.613 483.244 389.416 483.242C386.006 483.177 384.353 482.957 380.046 482.957C377.392 482.957 371.898 483.255 368.243 483.255C364.588 483.255 364.39 479.215 365.915 478.851C372.748 477.214 375.437 474.954 377.742 472.784C378.142 472.413 378.642 472.203 379.162 472.186Z" fill="#263238"/>
<path d="M378.871 450.737L379.173 462.365H387.903L387.601 450.737H378.871Z" fill="#CE6F64"/>
<path d="M425.011 450.737H416.281L417.736 462.365H426.455L425.011 450.737Z" fill="#CE6F64"/>
<path d="M392.466 160.306C393.06 169.946 393.49 174.012 389.742 179.559C384.097 187.887 373.365 186.601 370.199 177.351C367.347 169.023 366.858 154.667 374.796 149.626C376.543 148.509 378.516 147.909 380.529 147.882C382.541 147.855 384.527 148.402 386.297 149.472C388.067 150.541 389.563 152.098 390.642 153.994C391.722 155.89 392.35 158.063 392.466 160.306Z" fill="#E4897B"/>
<path d="M397.494 169.257C402.336 172.271 405.933 164.84 405.933 164.84C405.933 164.84 397.25 165.892 398.03 160.124C399.054 152.472 394.142 143.169 381.827 144.365C381.14 144.43 380.488 144.521 379.848 144.638C378.559 143.955 377.101 143.779 375.711 144.138C374.32 144.496 373.079 145.368 372.189 146.612C368.697 146.937 363.983 151.588 367.184 157.733C367.408 157.027 367.756 156.378 368.208 155.824C368.476 159.422 371.293 165.139 374.808 165.515C375.564 170.439 372.631 176.143 373.644 181.287C375.145 188.706 386.355 190.382 386.355 190.382C385.968 189.455 385.824 188.426 385.94 187.412C386.055 186.398 386.425 185.441 387.007 184.652C394.619 188.55 399.636 184.743 399.636 184.743C394.444 182.587 396.016 178.741 396.016 178.741C397.808 179.629 399.84 179.707 401.683 178.959C403.526 178.21 405.037 176.693 405.898 174.727C404.174 174.818 402.463 174.35 400.971 173.379C399.48 172.409 398.272 170.977 397.494 169.257Z" fill="#263238"/>
<path d="M377.846 166.996C377.866 167.922 377.723 168.842 377.423 169.705C377.123 170.568 376.674 171.356 376.1 172.024C374.563 173.804 372.678 172.557 372.166 170.283C371.712 168.231 371.968 164.84 373.97 163.904C374.41 163.711 374.887 163.644 375.357 163.709C375.827 163.774 376.275 163.968 376.66 164.276C377.045 164.583 377.356 164.993 377.563 165.468C377.77 165.943 377.867 166.469 377.846 166.996Z" fill="#E4897B"/>
<path d="M385.098 256.809C385.098 256.809 387.309 320.936 392.571 358.586C396.808 389.013 415.629 460.104 415.629 460.104H427.525C427.525 460.104 417.713 391.442 415.56 361.366C410.112 285.248 424.255 268.904 410.904 253.054L385.098 256.809Z" fill="#263238"/>
<path d="M395.039 277.089C395.039 277.089 389.661 276.049 386.518 287.482C387.682 309.139 389.673 337.877 392.571 358.586C393.211 363.198 394.189 368.759 395.388 374.852C393.118 338.267 395.039 277.089 395.039 277.089Z" fill="#161F33"/>
<path d="M375.821 258.16C375.821 258.16 366.02 329.108 366.59 358.794C367.184 389.676 377.322 460.13 377.322 460.13H389.114C389.114 460.13 387.251 391.507 388.287 361.185C389.451 328.121 401.545 254.431 401.545 254.431L375.821 258.16Z" fill="#263238"/>
<path d="M429.248 460.728H413.43L412.196 454.803L429.132 454.933L429.248 460.728Z" fill="#407BFF"/>
<path opacity="0.2" d="M429.248 460.728H413.43L412.196 454.803L429.132 454.933L429.248 460.728Z" fill="black"/>
<path d="M410.31 193.578C414.861 194.071 421.776 208.505 421.776 208.505L410.287 218.34C410.287 218.34 400.777 209.025 401.906 203.789C403.082 198.346 405.945 193.123 410.31 193.578Z" fill="#407BFF"/>
<path opacity="0.1" d="M410.31 193.578C414.861 194.071 421.776 208.505 421.776 208.505L410.287 218.34C410.287 218.34 400.777 209.025 401.906 203.789C403.082 198.346 405.945 193.123 410.31 193.578Z" fill="black"/>
<path d="M406.876 199.788C405.716 199.439 404.515 199.29 403.314 199.346C402.704 200.766 402.231 202.256 401.906 203.789C400.742 208.986 410.287 218.34 410.287 218.34L411.137 217.612L406.876 199.788Z" fill="#407BFF"/>
<path opacity="0.3" d="M406.876 199.788C405.716 199.439 404.515 199.29 403.314 199.346C402.704 200.766 402.231 202.256 401.906 203.789C400.742 208.986 410.287 218.34 410.287 218.34L411.137 217.612L406.876 199.788Z" fill="black"/>
<path d="M371.921 213.65C368.604 223.017 365.112 232.54 362.33 241.933C362.144 242.531 361.992 243.102 361.829 243.687L361.434 245.129C361.326 245.554 361.326 246.004 361.434 246.428C362.091 248.052 363.133 249.445 364.448 250.456C367.929 253.243 371.721 255.509 375.728 257.198L374.68 261.979C369.751 261.254 364.984 259.519 360.619 256.861C357.933 255.259 355.745 252.786 354.345 249.767C353.541 247.838 353.262 245.688 353.542 243.583C353.568 243.325 353.607 243.069 353.658 242.816L353.775 242.271L353.972 241.283C354.112 240.621 354.252 239.984 354.403 239.335C355.567 234.138 357.057 229.201 358.628 224.303C360.2 219.405 361.841 214.572 363.692 209.752L371.921 213.65Z" fill="#E4897B"/>
<path d="M364.856 200.502C364.856 200.502 360.921 202.724 375.821 258.16L410.95 253.041C408.482 237.165 407.318 227.33 410.31 193.578C405.272 193.175 400.215 193.175 395.178 193.578C389.815 193.926 384.481 194.707 379.219 195.916C372.48 197.592 364.856 200.502 364.856 200.502Z" fill="#407BFF"/>
<path opacity="0.1" d="M364.856 200.502C364.856 200.502 360.921 202.724 375.821 258.16L410.95 253.041C408.482 237.165 407.318 227.33 410.31 193.578C405.272 193.175 400.215 193.175 395.178 193.578C389.815 193.926 384.481 194.707 379.219 195.916C372.48 197.592 364.856 200.502 364.856 200.502Z" fill="black"/>
<path d="M411.206 250.663L413.22 253.924C413.371 254.184 413.115 254.496 412.719 254.561L375.879 259.94C375.565 259.94 375.274 259.849 375.227 259.628L374.505 256.159C374.447 255.925 374.703 255.678 375.052 255.626L410.624 250.43C410.731 250.411 410.84 250.422 410.942 250.463C411.044 250.504 411.135 250.573 411.206 250.663Z" fill="#407BFF"/>
<path opacity="0.2" d="M411.206 250.663L413.22 253.924C413.371 254.184 413.115 254.496 412.719 254.561L375.879 259.94C375.565 259.94 375.274 259.849 375.227 259.628L374.505 256.159C374.447 255.925 374.703 255.678 375.052 255.626L410.624 250.43C410.731 250.411 410.84 250.422 410.942 250.463C411.044 250.504 411.135 250.573 411.206 250.663Z" fill="black"/>
<path d="M406.946 255.795L407.9 255.652C408.086 255.652 408.214 255.496 408.191 255.367L407.213 250.871C407.176 250.795 407.117 250.735 407.045 250.701C406.972 250.668 406.892 250.664 406.818 250.689L405.863 250.819C405.665 250.819 405.537 250.975 405.572 251.118L406.55 255.6C406.573 255.743 406.759 255.821 406.946 255.795Z" fill="#263238"/>
<path d="M383.853 259.121L384.807 258.978C384.993 258.978 385.133 258.822 385.098 258.692L384.12 254.197C384.082 254.121 384.023 254.061 383.951 254.026C383.88 253.991 383.8 253.983 383.724 254.002L382.77 254.145C382.584 254.145 382.444 254.301 382.479 254.431L383.457 258.926C383.48 259.121 383.666 259.199 383.853 259.121Z" fill="#263238"/>
<path d="M366.497 219.314C367.463 224.329 368.825 230.682 370.816 238.724L371.246 218.34L366.497 219.314Z" fill="#407BFF"/>
<path opacity="0.3" d="M366.497 219.314C367.463 224.329 368.825 230.682 370.816 238.724L371.246 218.34L366.497 219.314Z" fill="black"/>
<path d="M364.856 200.502C360.491 202.464 356.708 219.132 356.708 219.132L371.724 227.291C371.724 227.291 378.975 206.907 375.728 202.932C372.48 198.956 369.884 198.255 364.856 200.502Z" fill="#407BFF"/>
<path opacity="0.1" d="M364.856 200.502C360.491 202.464 356.708 219.132 356.708 219.132L371.724 227.291C371.724 227.291 378.975 206.907 375.728 202.932C372.48 198.956 369.884 198.255 364.856 200.502Z" fill="black"/>
<path d="M391.127 460.728H375.309L374.075 454.803L391.686 454.933L391.127 460.728Z" fill="#407BFF"/>
<path opacity="0.2" d="M391.127 460.728H375.309L374.075 454.803L391.686 454.933L391.127 460.728Z" fill="black"/>
<path d="M375.972 255.587L374.703 255.003C374.391 254.861 374.051 254.814 373.718 254.867C373.385 254.919 373.07 255.069 372.805 255.301C372.54 255.533 372.335 255.84 372.21 256.189C372.086 256.538 372.046 256.918 372.096 257.289L373.015 264.058C373.06 264.397 373.171 264.72 373.34 265.006C373.51 265.291 373.735 265.53 373.998 265.707C374.26 265.883 374.555 265.992 374.86 266.026C375.165 266.06 375.474 266.018 375.762 265.903C376.224 265.716 376.656 265.448 377.043 265.11C377.464 264.721 377.797 264.226 378.015 263.667C378.234 263.107 378.331 262.498 378.3 261.888L378.172 259.082C378.15 258.324 377.93 257.589 377.539 256.969C377.148 256.348 376.604 255.868 375.972 255.587Z" fill="#E4897B"/>
</svg>
